<svg xmlns="http://www.w3.org/2000/svg" width="512" height="512" viewBox="0 0 512 512" role="img" aria-labelledby="title desc">
<title id="title">Apex</title>
<desc id="desc">Premium engraved plate style Swing rank badge for Apex.</desc>

<defs>
  <linearGradient id="g_plate_apex_x" x1="0.05" y1="0.04" x2="0.92" y2="0.96">
    <stop offset="0%" stop-color="#FFF4D1"/>
    <stop offset="18%" stop-color="#F6E9BC"/>
    <stop offset="54%" stop-color="#DEC379"/>
    <stop offset="100%" stop-color="#8C6A21"/>
  </linearGradient>
  <linearGradient id="g_inner_apex_x" x1="0.10" y1="0.08" x2="0.90" y2="0.92">
    <stop offset="0%" stop-color="#F6E8B9"/>
    <stop offset="100%" stop-color="#9C7725"/>
  </linearGradient>
  <linearGradient id="g_plaque_apex_x" x1="0.10" y1="0.08" x2="0.92" y2="0.92">
    <stop offset="0%" stop-color="#F7EBC1"/>
    <stop offset="45%" stop-color="#E8D49B"/>
    <stop offset="100%" stop-color="#CDAA55"/>
  </linearGradient>
  <linearGradient id="g_coin_apex_x" x1="0.14" y1="0.10" x2="0.88" y2="0.94">
    <stop offset="0%" stop-color="#F7EABE"/>
    <stop offset="52%" stop-color="#E8D398"/>
    <stop offset="100%" stop-color="#D0AE5B"/>
  </linearGradient>
  <radialGradient id="g_medal_apex_x" cx="38%" cy="28%" r="80%">
    <stop offset="0%" stop-color="#FFF2CA"/>
    <stop offset="58%" stop-color="#EAD398"/>
    <stop offset="100%" stop-color="#D3B261"/>
  </radialGradient>
</defs>

<rect x="44" y="44" width="420" height="420" rx="94" fill="#17140C" opacity="0.42"/>
<rect x="28" y="28" width="420" height="420" rx="94" fill="url(#g_plate_apex_x)" stroke="#E8CF8C" stroke-width="9"/>
<rect x="42" y="42" width="392" height="392" rx="82" fill="none" stroke="#FFF4D2" stroke-width="6" opacity="0.88"/>
<rect x="58" y="58" width="360" height="360" rx="72" fill="url(#g_inner_apex_x)" stroke="#CEA94E" stroke-width="4"/>
<path d="M 100 88 Q 170 68 250 78 Q 330 88 396 146 Q 370 138 326 132 Q 250 120 178 124 Q 130 126 96 138 Z" fill="#FFF4D2" opacity="0.11"/>
<path d="M 88 390 Q 170 418 252 412 Q 330 406 398 374 Q 354 404 298 422 Q 210 450 110 432 Z" fill="#937023" opacity="0.12"/>


<path d="M 108 92 L 134 92 L 156 112 L 130 112 Z" fill="none" stroke="#FFF3CE" stroke-width="4"/>
<path d="M 108 126 L 124 126 L 140 138 L 124 138 Z" fill="none" stroke="#785B1D" stroke-width="3"/>
<path d="M 404 92 L 378 92 L 356 112 L 382 112 Z" fill="none" stroke="#FFF3CE" stroke-width="4"/>
<path d="M 404 126 L 388 126 L 372 138 L 388 138 Z" fill="none" stroke="#785B1D" stroke-width="3"/>

<circle cx="256" cy="182" r="102" fill="none" stroke="#FFF4D1" stroke-width="4" opacity="0.70"/>
<circle cx="256" cy="182" r="88" fill="url(#g_medal_apex_x)" stroke="#CCA64B" stroke-width="6"/>
<circle cx="256" cy="182" r="72" fill="none" stroke="#FFF3CF" stroke-width="3.2" opacity="0.86"/>
<circle cx="256" cy="182" r="60" fill="none" stroke="#654D18" stroke-width="2.5" opacity="0.65"/>
<line x1="256.00" y1="128.00" x2="256.00" y2="100.00" stroke="#9C7725" stroke-width="5" stroke-linecap="round" opacity="0.16"/>
<line x1="276.66" y1="132.11" x2="287.38" y2="106.24" stroke="#9C7725" stroke-width="5" stroke-linecap="round" opacity="0.16"/>
<line x1="294.18" y1="143.82" x2="313.98" y2="124.02" stroke="#9C7725" stroke-width="5" stroke-linecap="round" opacity="0.16"/>
<line x1="305.89" y1="161.34" x2="331.76" y2="150.62" stroke="#9C7725" stroke-width="5" stroke-linecap="round" opacity="0.16"/>
<line x1="310.00" y1="182.00" x2="338.00" y2="182.00" stroke="#9C7725" stroke-width="5" stroke-linecap="round" opacity="0.16"/>
<line x1="305.89" y1="202.66" x2="331.76" y2="213.38" stroke="#9C7725" stroke-width="5" stroke-linecap="round" opacity="0.16"/>
<line x1="294.18" y1="220.18" x2="313.98" y2="239.98" stroke="#9C7725" stroke-width="5" stroke-linecap="round" opacity="0.16"/>
<line x1="276.66" y1="231.89" x2="287.38" y2="257.76" stroke="#9C7725" stroke-width="5" stroke-linecap="round" opacity="0.16"/>
<line x1="256.00" y1="236.00" x2="256.00" y2="264.00" stroke="#9C7725" stroke-width="5" stroke-linecap="round" opacity="0.16"/>
<line x1="235.34" y1="231.89" x2="224.62" y2="257.76" stroke="#9C7725" stroke-width="5" stroke-linecap="round" opacity="0.16"/>
<line x1="217.82" y1="220.18" x2="198.02" y2="239.98" stroke="#9C7725" stroke-width="5" stroke-linecap="round" opacity="0.16"/>
<line x1="206.11" y1="202.66" x2="180.24" y2="213.38" stroke="#9C7725" stroke-width="5" stroke-linecap="round" opacity="0.16"/>
<line x1="202.00" y1="182.00" x2="174.00" y2="182.00" stroke="#9C7725" stroke-width="5" stroke-linecap="round" opacity="0.16"/>
<line x1="206.11" y1="161.34" x2="180.24" y2="150.62" stroke="#9C7725" stroke-width="5" stroke-linecap="round" opacity="0.16"/>
<line x1="217.82" y1="143.82" x2="198.02" y2="124.02" stroke="#9C7725" stroke-width="5" stroke-linecap="round" opacity="0.16"/>
<line x1="235.34" y1="132.11" x2="224.62" y2="106.24" stroke="#9C7725" stroke-width="5" stroke-linecap="round" opacity="0.16"/>
<path d="M 174 154 Q 224 126 284 136 Q 318 142 346 164 Q 330 160 300 160 Q 238 160 194 176 Q 180 180 168 188 Z" fill="#FFF4D3" opacity="0.18"/>
<path d="M 208.00 89.00 L 210.35 94.76 L 216.56 95.22 L 211.80 99.24 L 213.29 105.28 L 208.00 102.00 L 202.71 105.28 L 204.20 99.24 L 199.44 95.22 L 205.65 94.76 Z" fill="#FFF2CD" stroke="#654D18" stroke-width="2.2"/>
<path d="M 232.00 89.00 L 234.35 94.76 L 240.56 95.22 L 235.80 99.24 L 237.29 105.28 L 232.00 102.00 L 226.71 105.28 L 228.20 99.24 L 223.44 95.22 L 229.65 94.76 Z" fill="#FFF2CD" stroke="#654D18" stroke-width="2.2"/>
<path d="M 256.00 89.00 L 258.35 94.76 L 264.56 95.22 L 259.80 99.24 L 261.29 105.28 L 256.00 102.00 L 250.71 105.28 L 252.20 99.24 L 247.44 95.22 L 253.65 94.76 Z" fill="#FFF2CD" stroke="#654D18" stroke-width="2.2"/>
<path d="M 280.00 89.00 L 282.35 94.76 L 288.56 95.22 L 283.80 99.24 L 285.29 105.28 L 280.00 102.00 L 274.71 105.28 L 276.20 99.24 L 271.44 95.22 L 277.65 94.76 Z" fill="#FFF2CD" stroke="#654D18" stroke-width="2.2"/>
<path d="M 304.00 89.00 L 306.35 94.76 L 312.56 95.22 L 307.80 99.24 L 309.29 105.28 L 304.00 102.00 L 298.71 105.28 L 300.20 99.24 L 295.44 95.22 L 301.65 94.76 Z" fill="#FFF2CD" stroke="#654D18" stroke-width="2.2"/>

<g transform="translate(256,182)">
  <path d="M -72 24 Q -62 -20 -26 -44 L -8 20 Q -42 38 -72 24 Z" fill="none" stroke="#FFF3CF" stroke-width="9.50" stroke-linejoin="round" stroke-linecap="round" transform="translate(-1.6,-1.6)" opacity="0.72"/>
<path d="M -72 24 Q -62 -20 -26 -44 L -8 20 Q -42 38 -72 24 Z" fill="none" stroke="#16130B" stroke-width="9.50" stroke-linejoin="round" stroke-linecap="round" transform="translate(1.9,1.9)" opacity="0.55"/>
<path d="M -72 24 Q -62 -20 -26 -44 L -8 20 Q -42 38 -72 24 Z" fill="none" stroke="#654D18" stroke-width="8" stroke-linejoin="round" stroke-linecap="round"/>
<path d="M 72 24 Q 62 -20 26 -44 L 8 20 Q 42 38 72 24 Z" fill="none" stroke="#FFF3CF" stroke-width="9.50" stroke-linejoin="round" stroke-linecap="round" transform="translate(-1.6,-1.6)" opacity="0.72"/>
<path d="M 72 24 Q 62 -20 26 -44 L 8 20 Q 42 38 72 24 Z" fill="none" stroke="#16130B" stroke-width="9.50" stroke-linejoin="round" stroke-linecap="round" transform="translate(1.9,1.9)" opacity="0.55"/>
<path d="M 72 24 Q 62 -20 26 -44 L 8 20 Q 42 38 72 24 Z" fill="none" stroke="#654D18" stroke-width="8" stroke-linejoin="round" stroke-linecap="round"/>
<path d="M -26 54 L 0 -38 L 26 54 L 6 54 L 0 30 L -6 54 Z" fill="none" stroke="#FFF3CF" stroke-width="9.50" stroke-linejoin="round" stroke-linecap="round" transform="translate(-1.6,-1.6)" opacity="0.72"/>
<path d="M -26 54 L 0 -38 L 26 54 L 6 54 L 0 30 L -6 54 Z" fill="none" stroke="#16130B" stroke-width="9.50" stroke-linejoin="round" stroke-linecap="round" transform="translate(1.9,1.9)" opacity="0.55"/>
<path d="M -26 54 L 0 -38 L 26 54 L 6 54 L 0 30 L -6 54 Z" fill="none" stroke="#654D18" stroke-width="8" stroke-linejoin="round" stroke-linecap="round"/>
<path d="M 0.00 -22.00 L 4.70 -8.47 L 19.02 -8.18 L 7.61 0.47 L 11.76 14.18 L 0.00 6.00 L -11.76 14.18 L -7.61 0.47 L -19.02 -8.18 L -4.70 -8.47 Z" fill="none" stroke="#FFF3CF" stroke-width="9.50" stroke-linejoin="round" stroke-linecap="round" transform="translate(-1.6,-1.6)" opacity="0.72"/>
<path d="M 0.00 -22.00 L 4.70 -8.47 L 19.02 -8.18 L 7.61 0.47 L 11.76 14.18 L 0.00 6.00 L -11.76 14.18 L -7.61 0.47 L -19.02 -8.18 L -4.70 -8.47 Z" fill="none" stroke="#16130B" stroke-width="9.50" stroke-linejoin="round" stroke-linecap="round" transform="translate(1.9,1.9)" opacity="0.55"/>
<path d="M 0.00 -22.00 L 4.70 -8.47 L 19.02 -8.18 L 7.61 0.47 L 11.76 14.18 L 0.00 6.00 L -11.76 14.18 L -7.61 0.47 L -19.02 -8.18 L -4.70 -8.47 Z" fill="none" stroke="#654D18" stroke-width="8" stroke-linejoin="round" stroke-linecap="round"/>
<path d="M -42 64 Q 0 82 42 64" fill="none" stroke="#FFF3CF" stroke-width="9.50" stroke-linejoin="round" stroke-linecap="round" transform="translate(-1.6,-1.6)" opacity="0.72"/>
<path d="M -42 64 Q 0 82 42 64" fill="none" stroke="#16130B" stroke-width="9.50" stroke-linejoin="round" stroke-linecap="round" transform="translate(1.9,1.9)" opacity="0.55"/>
<path d="M -42 64 Q 0 82 42 64" fill="none" stroke="#654D18" stroke-width="8" stroke-linejoin="round" stroke-linecap="round"/>
</g>

<rect x="92" y="314" width="328" height="76" rx="28" fill="url(#g_plaque_apex_x)" stroke="#E0C376" stroke-width="4"/>
<rect x="104" y="324" width="304" height="56" rx="22" fill="none" stroke="#FFF4D1" stroke-width="3" opacity="0.82"/>
<path d="M 116 320 Q 168 302 232 306 Q 288 310 332 330 Q 286 322 230 326 Q 170 330 116 352 Z" fill="#FFF4D1" opacity="0.14"/>

<path d="M 29.04 32.71 L 12.92 32.71 L 10.37 40.00 L 0.00 40.00 L 14.81 0.00 L 27.12 0.00 L 41.93 40.00 L 31.56 40.00 L 29.04 32.71 Z M 15.49 25.29 L 26.45 25.29 L 20.98 9.38 L 15.49 25.29 Z M 47.24 0.00 L 64.35 0.00 Q 71.99 0.00 76.07 3.39 Q 80.16 6.78 80.16 13.05 Q 80.16 19.35 76.07 22.73 Q 71.99 26.12 64.35 26.12 L 57.55 26.12 L 57.55 40.00 L 47.24 40.00 L 47.24 0.00 Z M 57.55 7.48 L 57.55 18.65 L 63.25 18.65 Q 66.25 18.65 67.89 17.19 Q 69.53 15.73 69.53 13.05 Q 69.53 10.37 67.89 8.92 Q 66.25 7.48 63.25 7.48 L 57.55 7.48 Z M 87.45 0.00 L 115.27 0.00 L 115.27 7.80 L 97.76 7.80 L 97.76 15.24 L 114.24 15.24 L 114.24 23.04 L 97.76 23.04 L 97.76 32.21 L 115.87 32.21 L 115.87 40.00 L 87.45 40.00 L 87.45 0.00 Z M 147.21 19.59 L 161.09 40.00 L 150.34 40.00 L 141.00 26.34 L 131.72 40.00 L 120.93 40.00 L 134.81 19.59 L 121.46 0.00 L 132.24 0.00 L 141.00 12.88 L 149.73 0.00 L 160.55 0.00 L 147.21 19.59 Z" fill="#F9EDC4" stroke="none" transform="translate(174.16,331.70)" opacity="0.78"/>
<path d="M 29.04 32.71 L 12.92 32.71 L 10.37 40.00 L 0.00 40.00 L 14.81 0.00 L 27.12 0.00 L 41.93 40.00 L 31.56 40.00 L 29.04 32.71 Z M 15.49 25.29 L 26.45 25.29 L 20.98 9.38 L 15.49 25.29 Z M 47.24 0.00 L 64.35 0.00 Q 71.99 0.00 76.07 3.39 Q 80.16 6.78 80.16 13.05 Q 80.16 19.35 76.07 22.73 Q 71.99 26.12 64.35 26.12 L 57.55 26.12 L 57.55 40.00 L 47.24 40.00 L 47.24 0.00 Z M 57.55 7.48 L 57.55 18.65 L 63.25 18.65 Q 66.25 18.65 67.89 17.19 Q 69.53 15.73 69.53 13.05 Q 69.53 10.37 67.89 8.92 Q 66.25 7.48 63.25 7.48 L 57.55 7.48 Z M 87.45 0.00 L 115.27 0.00 L 115.27 7.80 L 97.76 7.80 L 97.76 15.24 L 114.24 15.24 L 114.24 23.04 L 97.76 23.04 L 97.76 32.21 L 115.87 32.21 L 115.87 40.00 L 87.45 40.00 L 87.45 0.00 Z M 147.21 19.59 L 161.09 40.00 L 150.34 40.00 L 141.00 26.34 L 131.72 40.00 L 120.93 40.00 L 134.81 19.59 L 121.46 0.00 L 132.24 0.00 L 141.00 12.88 L 149.73 0.00 L 160.55 0.00 L 147.21 19.59 Z" fill="#664D19" stroke="none" transform="translate(176.96,334.50)" opacity="0.58"/>
<path d="M 29.04 32.71 L 12.92 32.71 L 10.37 40.00 L 0.00 40.00 L 14.81 0.00 L 27.12 0.00 L 41.93 40.00 L 31.56 40.00 L 29.04 32.71 Z M 15.49 25.29 L 26.45 25.29 L 20.98 9.38 L 15.49 25.29 Z M 47.24 0.00 L 64.35 0.00 Q 71.99 0.00 76.07 3.39 Q 80.16 6.78 80.16 13.05 Q 80.16 19.35 76.07 22.73 Q 71.99 26.12 64.35 26.12 L 57.55 26.12 L 57.55 40.00 L 47.24 40.00 L 47.24 0.00 Z M 57.55 7.48 L 57.55 18.65 L 63.25 18.65 Q 66.25 18.65 67.89 17.19 Q 69.53 15.73 69.53 13.05 Q 69.53 10.37 67.89 8.92 Q 66.25 7.48 63.25 7.48 L 57.55 7.48 Z M 87.45 0.00 L 115.27 0.00 L 115.27 7.80 L 97.76 7.80 L 97.76 15.24 L 114.24 15.24 L 114.24 23.04 L 97.76 23.04 L 97.76 32.21 L 115.87 32.21 L 115.87 40.00 L 87.45 40.00 L 87.45 0.00 Z M 147.21 19.59 L 161.09 40.00 L 150.34 40.00 L 141.00 26.34 L 131.72 40.00 L 120.93 40.00 L 134.81 19.59 L 121.46 0.00 L 132.24 0.00 L 141.00 12.88 L 149.73 0.00 L 160.55 0.00 L 147.21 19.59 Z" fill="#F7E7AF" stroke="#6B511A" stroke-width="1.5" transform="translate(175.46,333.00)"/>

</svg>