<svg xmlns="http://www.w3.org/2000/svg" width="512" height="512" viewBox="0 0 512 512" role="img" aria-labelledby="title desc">
<title id="title">Ascendant II</title>
<desc id="desc">Premium engraved plate style Swing rank badge for Ascendant II.</desc>

<defs>
  <linearGradient id="g_plate_ascendant_2" x1="0.05" y1="0.04" x2="0.92" y2="0.96">
    <stop offset="0%" stop-color="#C3F8FF"/>
    <stop offset="18%" stop-color="#A8F4FF"/>
    <stop offset="54%" stop-color="#6BE2F2"/>
    <stop offset="100%" stop-color="#2B97A6"/>
  </linearGradient>
  <linearGradient id="g_inner_ascendant_2" x1="0.10" y1="0.08" x2="0.90" y2="0.92">
    <stop offset="0%" stop-color="#A4F4FF"/>
    <stop offset="100%" stop-color="#30A9B9"/>
  </linearGradient>
  <linearGradient id="g_plaque_ascendant_2" x1="0.10" y1="0.08" x2="0.92" y2="0.92">
    <stop offset="0%" stop-color="#AEF5FF"/>
    <stop offset="45%" stop-color="#8EEAF7"/>
    <stop offset="100%" stop-color="#54D5E7"/>
  </linearGradient>
  <linearGradient id="g_coin_ascendant_2" x1="0.14" y1="0.10" x2="0.88" y2="0.94">
    <stop offset="0%" stop-color="#AAF4FF"/>
    <stop offset="52%" stop-color="#8BE9F7"/>
    <stop offset="100%" stop-color="#58D7E9"/>
  </linearGradient>
  <radialGradient id="g_medal_ascendant_2" cx="38%" cy="28%" r="80%">
    <stop offset="0%" stop-color="#BAF7FF"/>
    <stop offset="58%" stop-color="#8DE9F5"/>
    <stop offset="100%" stop-color="#5CD9EB"/>
  </radialGradient>
</defs>

<rect x="44" y="44" width="420" height="420" rx="94" fill="#0B1A20" opacity="0.42"/>
<rect x="28" y="28" width="420" height="420" rx="94" fill="url(#g_plate_ascendant_2)" stroke="#8BEAF7" stroke-width="9"/>
<rect x="42" y="42" width="392" height="392" rx="82" fill="none" stroke="#C5F9FF" stroke-width="6" opacity="0.88"/>
<rect x="58" y="58" width="360" height="360" rx="72" fill="url(#g_inner_ascendant_2)" stroke="#5AD9EA" stroke-width="4"/>
<path d="M 100 88 Q 170 68 250 78 Q 330 88 396 146 Q 370 138 326 132 Q 250 120 178 124 Q 130 126 96 138 Z" fill="#C5F9FF" opacity="0.11"/>
<path d="M 88 390 Q 170 418 252 412 Q 330 406 398 374 Q 354 404 298 422 Q 210 450 110 432 Z" fill="#2E9FAE" opacity="0.12"/>


<path d="M 108 92 L 134 92 L 156 112 L 130 112 Z" fill="none" stroke="#BFF8FF" stroke-width="4"/>
<path d="M 108 126 L 124 126 L 140 138 L 124 138 Z" fill="none" stroke="#25818E" stroke-width="3"/>
<path d="M 404 92 L 378 92 L 356 112 L 382 112 Z" fill="none" stroke="#BFF8FF" stroke-width="4"/>
<path d="M 404 126 L 388 126 L 372 138 L 388 138 Z" fill="none" stroke="#25818E" stroke-width="3"/>

<circle cx="256" cy="182" r="102" fill="none" stroke="#C3F8FF" stroke-width="4" opacity="0.70"/>
<circle cx="256" cy="182" r="88" fill="url(#g_medal_ascendant_2)" stroke="#57D7E8" stroke-width="6"/>
<circle cx="256" cy="182" r="72" fill="none" stroke="#C1F8FF" stroke-width="3.2" opacity="0.86"/>
<circle cx="256" cy="182" r="60" fill="none" stroke="#1F6D78" stroke-width="2.5" opacity="0.65"/>
<line x1="256.00" y1="128.00" x2="256.00" y2="100.00" stroke="#30A9B9" stroke-width="5" stroke-linecap="round" opacity="0.16"/>
<line x1="276.66" y1="132.11" x2="287.38" y2="106.24" stroke="#30A9B9" stroke-width="5" stroke-linecap="round" opacity="0.16"/>
<line x1="294.18" y1="143.82" x2="313.98" y2="124.02" stroke="#30A9B9" stroke-width="5" stroke-linecap="round" opacity="0.16"/>
<line x1="305.89" y1="161.34" x2="331.76" y2="150.62" stroke="#30A9B9" stroke-width="5" stroke-linecap="round" opacity="0.16"/>
<line x1="310.00" y1="182.00" x2="338.00" y2="182.00" stroke="#30A9B9" stroke-width="5" stroke-linecap="round" opacity="0.16"/>
<line x1="305.89" y1="202.66" x2="331.76" y2="213.38" stroke="#30A9B9" stroke-width="5" stroke-linecap="round" opacity="0.16"/>
<line x1="294.18" y1="220.18" x2="313.98" y2="239.98" stroke="#30A9B9" stroke-width="5" stroke-linecap="round" opacity="0.16"/>
<line x1="276.66" y1="231.89" x2="287.38" y2="257.76" stroke="#30A9B9" stroke-width="5" stroke-linecap="round" opacity="0.16"/>
<line x1="256.00" y1="236.00" x2="256.00" y2="264.00" stroke="#30A9B9" stroke-width="5" stroke-linecap="round" opacity="0.16"/>
<line x1="235.34" y1="231.89" x2="224.62" y2="257.76" stroke="#30A9B9" stroke-width="5" stroke-linecap="round" opacity="0.16"/>
<line x1="217.82" y1="220.18" x2="198.02" y2="239.98" stroke="#30A9B9" stroke-width="5" stroke-linecap="round" opacity="0.16"/>
<line x1="206.11" y1="202.66" x2="180.24" y2="213.38" stroke="#30A9B9" stroke-width="5" stroke-linecap="round" opacity="0.16"/>
<line x1="202.00" y1="182.00" x2="174.00" y2="182.00" stroke="#30A9B9" stroke-width="5" stroke-linecap="round" opacity="0.16"/>
<line x1="206.11" y1="161.34" x2="180.24" y2="150.62" stroke="#30A9B9" stroke-width="5" stroke-linecap="round" opacity="0.16"/>
<line x1="217.82" y1="143.82" x2="198.02" y2="124.02" stroke="#30A9B9" stroke-width="5" stroke-linecap="round" opacity="0.16"/>
<line x1="235.34" y1="132.11" x2="224.62" y2="106.24" stroke="#30A9B9" stroke-width="5" stroke-linecap="round" opacity="0.16"/>
<path d="M 174 154 Q 224 126 284 136 Q 318 142 346 164 Q 330 160 300 160 Q 238 160 194 176 Q 180 180 168 188 Z" fill="#C6F9FF" opacity="0.18"/>
<path d="M 242.00 88.00 L 244.53 94.52 L 251.51 94.91 L 246.09 99.33 L 247.88 106.09 L 242.00 102.30 L 236.12 106.09 L 237.91 99.33 L 232.49 94.91 L 239.47 94.52 Z" fill="#C1F8FF" stroke="#25818E" stroke-width="2.2"/>
<path d="M 270.00 88.00 L 272.53 94.52 L 279.51 94.91 L 274.09 99.33 L 275.88 106.09 L 270.00 102.30 L 264.12 106.09 L 265.91 99.33 L 260.49 94.91 L 267.47 94.52 Z" fill="#C1F8FF" stroke="#25818E" stroke-width="2.2"/>

<g transform="translate(256,182)">
  <path d="M -18 56 Q -56 28 -62 -16 Q -48 -52 -16 -62 Q -28 -30 -18 -2 Q -28 28 -18 56 Z" fill="none" stroke="#C1F8FF" stroke-width="8.50" stroke-linejoin="round" stroke-linecap="round" transform="translate(-1.6,-1.6)" opacity="0.72"/>
<path d="M -18 56 Q -56 28 -62 -16 Q -48 -52 -16 -62 Q -28 -30 -18 -2 Q -28 28 -18 56 Z" fill="none" stroke="#0A191E" stroke-width="8.50" stroke-linejoin="round" stroke-linecap="round" transform="translate(1.9,1.9)" opacity="0.55"/>
<path d="M -18 56 Q -56 28 -62 -16 Q -48 -52 -16 -62 Q -28 -30 -18 -2 Q -28 28 -18 56 Z" fill="none" stroke="#1F6D78" stroke-width="7" stroke-linejoin="round" stroke-linecap="round"/>
<path d="M 18 56 Q 56 28 62 -16 Q 48 -52 16 -62 Q 28 -30 18 -2 Q 28 28 18 56 Z" fill="none" stroke="#C1F8FF" stroke-width="8.50" stroke-linejoin="round" stroke-linecap="round" transform="translate(-1.6,-1.6)" opacity="0.72"/>
<path d="M 18 56 Q 56 28 62 -16 Q 48 -52 16 -62 Q 28 -30 18 -2 Q 28 28 18 56 Z" fill="none" stroke="#0A191E" stroke-width="8.50" stroke-linejoin="round" stroke-linecap="round" transform="translate(1.9,1.9)" opacity="0.55"/>
<path d="M 18 56 Q 56 28 62 -16 Q 48 -52 16 -62 Q 28 -30 18 -2 Q 28 28 18 56 Z" fill="none" stroke="#1F6D78" stroke-width="7" stroke-linejoin="round" stroke-linecap="round"/>
<path d="M 0 -44 L 20 0 L 0 44 L -20 0 Z" fill="none" stroke="#C1F8FF" stroke-width="8.50" stroke-linejoin="round" stroke-linecap="round" transform="translate(-1.6,-1.6)" opacity="0.72"/>
<path d="M 0 -44 L 20 0 L 0 44 L -20 0 Z" fill="none" stroke="#0A191E" stroke-width="8.50" stroke-linejoin="round" stroke-linecap="round" transform="translate(1.9,1.9)" opacity="0.55"/>
<path d="M 0 -44 L 20 0 L 0 44 L -20 0 Z" fill="none" stroke="#1F6D78" stroke-width="7" stroke-linejoin="round" stroke-linecap="round"/>
</g>

<rect x="92" y="308" width="328" height="78" rx="28" fill="url(#g_plaque_ascendant_2)" stroke="#7BE6F4" stroke-width="4"/>
<rect x="104" y="318" width="304" height="58" rx="22" fill="none" stroke="#C3F8FF" stroke-width="3" opacity="0.82"/>
<path d="M 116 320 Q 168 302 232 306 Q 288 310 332 330 Q 286 322 230 326 Q 170 330 116 352 Z" fill="#C3F8FF" opacity="0.14"/>

<path d="M 20.22 23.27 L 8.99 23.27 L 7.22 28.34 L 0.00 28.34 L 10.31 0.50 L 18.87 0.50 L 29.18 28.34 L 21.97 28.34 L 20.22 23.27 Z M 10.78 18.10 L 18.41 18.10 L 14.60 7.03 L 10.78 18.10 Z M 52.25 1.38 L 52.25 7.27 Q 49.96 6.25 47.77 5.73 Q 45.59 5.20 43.65 5.20 Q 41.08 5.20 39.85 5.91 Q 38.62 6.62 38.62 8.11 Q 38.62 9.23 39.45 9.86 Q 40.28 10.48 42.46 10.93 L 45.52 11.54 Q 50.16 12.48 52.12 14.38 Q 54.08 16.28 54.08 19.79 Q 54.08 24.39 51.35 26.64 Q 48.61 28.89 43.00 28.89 Q 40.35 28.89 37.69 28.38 Q 35.02 27.88 32.35 26.89 L 32.35 20.83 Q 35.02 22.24 37.51 22.97 Q 40.00 23.68 42.31 23.68 Q 44.66 23.68 45.91 22.90 Q 47.16 22.11 47.16 20.66 Q 47.16 19.36 46.31 18.65 Q 45.46 17.94 42.93 17.38 L 40.15 16.76 Q 35.97 15.87 34.04 13.91 Q 32.11 11.95 32.11 8.63 Q 32.11 4.48 34.79 2.24 Q 37.48 0.00 42.51 0.00 Q 44.81 0.00 47.23 0.35 Q 49.66 0.69 52.25 1.38 Z M 82.46 26.81 Q 80.48 27.84 78.34 28.36 Q 76.19 28.89 73.86 28.89 Q 66.90 28.89 62.84 25.00 Q 58.78 21.10 58.78 14.45 Q 58.78 7.77 62.84 3.89 Q 66.90 0.00 73.86 0.00 Q 76.19 0.00 78.34 0.53 Q 80.48 1.04 82.46 2.07 L 82.46 7.83 Q 80.46 6.47 78.52 5.84 Q 76.58 5.20 74.44 5.20 Q 70.60 5.20 68.39 7.67 Q 66.20 10.13 66.20 14.45 Q 66.20 18.76 68.39 21.22 Q 70.60 23.68 74.44 23.68 Q 76.58 23.68 78.52 23.05 Q 80.46 22.41 82.46 21.05 L 82.46 26.81 Z M 88.41 0.50 L 107.78 0.50 L 107.78 5.93 L 95.58 5.93 L 95.58 11.11 L 107.05 11.11 L 107.05 16.54 L 95.58 16.54 L 95.58 22.92 L 108.19 22.92 L 108.19 28.34 L 88.41 28.34 L 88.41 0.50 Z M 114.49 0.50 L 122.51 0.50 L 132.63 19.60 L 132.63 0.50 L 139.44 0.50 L 139.44 28.34 L 131.42 28.34 L 121.30 9.25 L 121.30 28.34 L 114.49 28.34 L 114.49 0.50 Z M 153.63 5.93 L 153.63 22.92 L 156.20 22.92 Q 160.60 22.92 162.92 20.73 Q 165.25 18.55 165.25 14.39 Q 165.25 10.26 162.93 8.10 Q 160.62 5.93 156.20 5.93 L 153.63 5.93 Z M 146.45 0.50 L 154.02 0.50 Q 160.36 0.50 163.46 1.41 Q 166.57 2.31 168.79 4.48 Q 170.74 6.36 171.69 8.82 Q 172.65 11.28 172.65 14.39 Q 172.65 17.55 171.69 20.02 Q 170.74 22.49 168.79 24.37 Q 166.55 26.53 163.42 27.44 Q 160.28 28.34 154.02 28.34 L 146.45 28.34 L 146.45 0.50 Z M 195.04 23.27 L 183.82 23.27 L 182.05 28.34 L 174.83 28.34 L 185.14 0.50 L 193.70 0.50 L 204.01 28.34 L 196.80 28.34 L 195.04 23.27 Z M 185.61 18.10 L 193.24 18.10 L 189.43 7.03 L 185.61 18.10 Z M 207.71 0.50 L 215.72 0.50 L 225.85 19.60 L 225.85 0.50 L 232.65 0.50 L 232.65 28.34 L 224.63 28.34 L 214.51 9.25 L 214.51 28.34 L 207.71 28.34 L 207.71 0.50 Z M 236.34 0.50 L 262.00 0.50 L 262.00 5.93 L 252.77 5.93 L 252.77 28.34 L 245.59 28.34 L 245.59 5.93 L 236.34 5.93 L 236.34 0.50 Z" fill="#B2F5FF" stroke="none" transform="translate(123.70,332.26)" opacity="0.78"/>
<path d="M 20.22 23.27 L 8.99 23.27 L 7.22 28.34 L 0.00 28.34 L 10.31 0.50 L 18.87 0.50 L 29.18 28.34 L 21.97 28.34 L 20.22 23.27 Z M 10.78 18.10 L 18.41 18.10 L 14.60 7.03 L 10.78 18.10 Z M 52.25 1.38 L 52.25 7.27 Q 49.96 6.25 47.77 5.73 Q 45.59 5.20 43.65 5.20 Q 41.08 5.20 39.85 5.91 Q 38.62 6.62 38.62 8.11 Q 38.62 9.23 39.45 9.86 Q 40.28 10.48 42.46 10.93 L 45.52 11.54 Q 50.16 12.48 52.12 14.38 Q 54.08 16.28 54.08 19.79 Q 54.08 24.39 51.35 26.64 Q 48.61 28.89 43.00 28.89 Q 40.35 28.89 37.69 28.38 Q 35.02 27.88 32.35 26.89 L 32.35 20.83 Q 35.02 22.24 37.51 22.97 Q 40.00 23.68 42.31 23.68 Q 44.66 23.68 45.91 22.90 Q 47.16 22.11 47.16 20.66 Q 47.16 19.36 46.31 18.65 Q 45.46 17.94 42.93 17.38 L 40.15 16.76 Q 35.97 15.87 34.04 13.91 Q 32.11 11.95 32.11 8.63 Q 32.11 4.48 34.79 2.24 Q 37.48 0.00 42.51 0.00 Q 44.81 0.00 47.23 0.35 Q 49.66 0.69 52.25 1.38 Z M 82.46 26.81 Q 80.48 27.84 78.34 28.36 Q 76.19 28.89 73.86 28.89 Q 66.90 28.89 62.84 25.00 Q 58.78 21.10 58.78 14.45 Q 58.78 7.77 62.84 3.89 Q 66.90 0.00 73.86 0.00 Q 76.19 0.00 78.34 0.53 Q 80.48 1.04 82.46 2.07 L 82.46 7.83 Q 80.46 6.47 78.52 5.84 Q 76.58 5.20 74.44 5.20 Q 70.60 5.20 68.39 7.67 Q 66.20 10.13 66.20 14.45 Q 66.20 18.76 68.39 21.22 Q 70.60 23.68 74.44 23.68 Q 76.58 23.68 78.52 23.05 Q 80.46 22.41 82.46 21.05 L 82.46 26.81 Z M 88.41 0.50 L 107.78 0.50 L 107.78 5.93 L 95.58 5.93 L 95.58 11.11 L 107.05 11.11 L 107.05 16.54 L 95.58 16.54 L 95.58 22.92 L 108.19 22.92 L 108.19 28.34 L 88.41 28.34 L 88.41 0.50 Z M 114.49 0.50 L 122.51 0.50 L 132.63 19.60 L 132.63 0.50 L 139.44 0.50 L 139.44 28.34 L 131.42 28.34 L 121.30 9.25 L 121.30 28.34 L 114.49 28.34 L 114.49 0.50 Z M 153.63 5.93 L 153.63 22.92 L 156.20 22.92 Q 160.60 22.92 162.92 20.73 Q 165.25 18.55 165.25 14.39 Q 165.25 10.26 162.93 8.10 Q 160.62 5.93 156.20 5.93 L 153.63 5.93 Z M 146.45 0.50 L 154.02 0.50 Q 160.36 0.50 163.46 1.41 Q 166.57 2.31 168.79 4.48 Q 170.74 6.36 171.69 8.82 Q 172.65 11.28 172.65 14.39 Q 172.65 17.55 171.69 20.02 Q 170.74 22.49 168.79 24.37 Q 166.55 26.53 163.42 27.44 Q 160.28 28.34 154.02 28.34 L 146.45 28.34 L 146.45 0.50 Z M 195.04 23.27 L 183.82 23.27 L 182.05 28.34 L 174.83 28.34 L 185.14 0.50 L 193.70 0.50 L 204.01 28.34 L 196.80 28.34 L 195.04 23.27 Z M 185.61 18.10 L 193.24 18.10 L 189.43 7.03 L 185.61 18.10 Z M 207.71 0.50 L 215.72 0.50 L 225.85 19.60 L 225.85 0.50 L 232.65 0.50 L 232.65 28.34 L 224.63 28.34 L 214.51 9.25 L 214.51 28.34 L 207.71 28.34 L 207.71 0.50 Z M 236.34 0.50 L 262.00 0.50 L 262.00 5.93 L 252.77 5.93 L 252.77 28.34 L 245.59 28.34 L 245.59 5.93 L 236.34 5.93 L 236.34 0.50 Z" fill="#1F6D78" stroke="none" transform="translate(126.50,335.06)" opacity="0.58"/>
<path d="M 20.22 23.27 L 8.99 23.27 L 7.22 28.34 L 0.00 28.34 L 10.31 0.50 L 18.87 0.50 L 29.18 28.34 L 21.97 28.34 L 20.22 23.27 Z M 10.78 18.10 L 18.41 18.10 L 14.60 7.03 L 10.78 18.10 Z M 52.25 1.38 L 52.25 7.27 Q 49.96 6.25 47.77 5.73 Q 45.59 5.20 43.65 5.20 Q 41.08 5.20 39.85 5.91 Q 38.62 6.62 38.62 8.11 Q 38.62 9.23 39.45 9.86 Q 40.28 10.48 42.46 10.93 L 45.52 11.54 Q 50.16 12.48 52.12 14.38 Q 54.08 16.28 54.08 19.79 Q 54.08 24.39 51.35 26.64 Q 48.61 28.89 43.00 28.89 Q 40.35 28.89 37.69 28.38 Q 35.02 27.88 32.35 26.89 L 32.35 20.83 Q 35.02 22.24 37.51 22.97 Q 40.00 23.68 42.31 23.68 Q 44.66 23.68 45.91 22.90 Q 47.16 22.11 47.16 20.66 Q 47.16 19.36 46.31 18.65 Q 45.46 17.94 42.93 17.38 L 40.15 16.76 Q 35.97 15.87 34.04 13.91 Q 32.11 11.95 32.11 8.63 Q 32.11 4.48 34.79 2.24 Q 37.48 0.00 42.51 0.00 Q 44.81 0.00 47.23 0.35 Q 49.66 0.69 52.25 1.38 Z M 82.46 26.81 Q 80.48 27.84 78.34 28.36 Q 76.19 28.89 73.86 28.89 Q 66.90 28.89 62.84 25.00 Q 58.78 21.10 58.78 14.45 Q 58.78 7.77 62.84 3.89 Q 66.90 0.00 73.86 0.00 Q 76.19 0.00 78.34 0.53 Q 80.48 1.04 82.46 2.07 L 82.46 7.83 Q 80.46 6.47 78.52 5.84 Q 76.58 5.20 74.44 5.20 Q 70.60 5.20 68.39 7.67 Q 66.20 10.13 66.20 14.45 Q 66.20 18.76 68.39 21.22 Q 70.60 23.68 74.44 23.68 Q 76.58 23.68 78.52 23.05 Q 80.46 22.41 82.46 21.05 L 82.46 26.81 Z M 88.41 0.50 L 107.78 0.50 L 107.78 5.93 L 95.58 5.93 L 95.58 11.11 L 107.05 11.11 L 107.05 16.54 L 95.58 16.54 L 95.58 22.92 L 108.19 22.92 L 108.19 28.34 L 88.41 28.34 L 88.41 0.50 Z M 114.49 0.50 L 122.51 0.50 L 132.63 19.60 L 132.63 0.50 L 139.44 0.50 L 139.44 28.34 L 131.42 28.34 L 121.30 9.25 L 121.30 28.34 L 114.49 28.34 L 114.49 0.50 Z M 153.63 5.93 L 153.63 22.92 L 156.20 22.92 Q 160.60 22.92 162.92 20.73 Q 165.25 18.55 165.25 14.39 Q 165.25 10.26 162.93 8.10 Q 160.62 5.93 156.20 5.93 L 153.63 5.93 Z M 146.45 0.50 L 154.02 0.50 Q 160.36 0.50 163.46 1.41 Q 166.57 2.31 168.79 4.48 Q 170.74 6.36 171.69 8.82 Q 172.65 11.28 172.65 14.39 Q 172.65 17.55 171.69 20.02 Q 170.74 22.49 168.79 24.37 Q 166.55 26.53 163.42 27.44 Q 160.28 28.34 154.02 28.34 L 146.45 28.34 L 146.45 0.50 Z M 195.04 23.27 L 183.82 23.27 L 182.05 28.34 L 174.83 28.34 L 185.14 0.50 L 193.70 0.50 L 204.01 28.34 L 196.80 28.34 L 195.04 23.27 Z M 185.61 18.10 L 193.24 18.10 L 189.43 7.03 L 185.61 18.10 Z M 207.71 0.50 L 215.72 0.50 L 225.85 19.60 L 225.85 0.50 L 232.65 0.50 L 232.65 28.34 L 224.63 28.34 L 214.51 9.25 L 214.51 28.34 L 207.71 28.34 L 207.71 0.50 Z M 236.34 0.50 L 262.00 0.50 L 262.00 5.93 L 252.77 5.93 L 252.77 28.34 L 245.59 28.34 L 245.59 5.93 L 236.34 5.93 L 236.34 0.50 Z" fill="#97F2FF" stroke="#21737E" stroke-width="1.5" transform="translate(125.00,333.56)"/>

<g>
  <circle cx="256" cy="436" r="36" fill="#0B191F" opacity="0.34"/>
  <circle cx="256" cy="426" r="34" fill="url(#g_coin_ascendant_2)" stroke="#5EDBEC" stroke-width="4"/>
  <circle cx="256" cy="426" r="26" fill="none" stroke="#C1F8FF" stroke-width="3.2" opacity="0.84"/>
  <path d="M 232 422 Q 256 410 280 422" stroke="#C6F9FF" stroke-width="4" opacity="0.45" fill="none" stroke-linecap="round"/>
  
<path d="M 0.00 38.00 L 0.00 34.92 L 4.86 34.92 L 4.86 3.08 L 0.00 3.08 L 0.00 0.00 L 19.55 0.00 L 19.55 3.08 L 14.66 3.08 L 14.66 34.92 L 19.55 34.92 L 19.55 38.00 L 0.00 38.00 Z M 24.38 38.00 L 24.38 34.92 L 29.24 34.92 L 29.24 3.08 L 24.38 3.08 L 24.38 0.00 L 43.93 0.00 L 43.93 3.08 L 39.04 3.08 L 39.04 34.92 L 43.93 34.92 L 43.93 38.00 L 24.38 38.00 Z" fill="#B2F5FF" stroke="none" transform="translate(232.74,405.70)" opacity="0.78"/>
<path d="M 0.00 38.00 L 0.00 34.92 L 4.86 34.92 L 4.86 3.08 L 0.00 3.08 L 0.00 0.00 L 19.55 0.00 L 19.55 3.08 L 14.66 3.08 L 14.66 34.92 L 19.55 34.92 L 19.55 38.00 L 0.00 38.00 Z M 24.38 38.00 L 24.38 34.92 L 29.24 34.92 L 29.24 3.08 L 24.38 3.08 L 24.38 0.00 L 43.93 0.00 L 43.93 3.08 L 39.04 3.08 L 39.04 34.92 L 43.93 34.92 L 43.93 38.00 L 24.38 38.00 Z" fill="#1F6D78" stroke="none" transform="translate(235.54,408.50)" opacity="0.58"/>
<path d="M 0.00 38.00 L 0.00 34.92 L 4.86 34.92 L 4.86 3.08 L 0.00 3.08 L 0.00 0.00 L 19.55 0.00 L 19.55 3.08 L 14.66 3.08 L 14.66 34.92 L 19.55 34.92 L 19.55 38.00 L 0.00 38.00 Z M 24.38 38.00 L 24.38 34.92 L 29.24 34.92 L 29.24 3.08 L 24.38 3.08 L 24.38 0.00 L 43.93 0.00 L 43.93 3.08 L 39.04 3.08 L 39.04 34.92 L 43.93 34.92 L 43.93 38.00 L 24.38 38.00 Z" fill="#97F2FF" stroke="#21737E" stroke-width="1.5" transform="translate(234.04,407.00)"/>
</g>
</svg>