<svg xmlns="http://www.w3.org/2000/svg" width="512" height="512" viewBox="0 0 512 512" role="img" aria-labelledby="title desc">
<title id="title">Dominion II</title>
<desc id="desc">Premium engraved plate style Swing rank badge for Dominion II.</desc>

<defs>
  <linearGradient id="g_plate_dominion_2" x1="0.05" y1="0.04" x2="0.92" y2="0.96">
    <stop offset="0%" stop-color="#FFD8A4"/>
    <stop offset="18%" stop-color="#F4C888"/>
    <stop offset="54%" stop-color="#E29E47"/>
    <stop offset="100%" stop-color="#995C1B"/>
  </linearGradient>
  <linearGradient id="g_inner_dominion_2" x1="0.10" y1="0.08" x2="0.90" y2="0.92">
    <stop offset="0%" stop-color="#F4C583"/>
    <stop offset="100%" stop-color="#AB671F"/>
  </linearGradient>
  <linearGradient id="g_plaque_dominion_2" x1="0.10" y1="0.08" x2="0.92" y2="0.92">
    <stop offset="0%" stop-color="#F5CB90"/>
    <stop offset="45%" stop-color="#EAB571"/>
    <stop offset="100%" stop-color="#D78D37"/>
  </linearGradient>
  <linearGradient id="g_coin_dominion_2" x1="0.14" y1="0.10" x2="0.88" y2="0.94">
    <stop offset="0%" stop-color="#F4C98C"/>
    <stop offset="52%" stop-color="#EAB36D"/>
    <stop offset="100%" stop-color="#D9903A"/>
  </linearGradient>
  <radialGradient id="g_medal_dominion_2" cx="38%" cy="28%" r="80%">
    <stop offset="0%" stop-color="#FFD296"/>
    <stop offset="58%" stop-color="#EEB46B"/>
    <stop offset="100%" stop-color="#DB933C"/>
  </radialGradient>
</defs>

<rect x="44" y="44" width="420" height="420" rx="94" fill="#1D140C" opacity="0.42"/>
<rect x="28" y="28" width="420" height="420" rx="94" fill="url(#g_plate_dominion_2)" stroke="#F0B269" stroke-width="9"/>
<rect x="42" y="42" width="392" height="392" rx="82" fill="none" stroke="#FFD9A6" stroke-width="6" opacity="0.88"/>
<rect x="58" y="58" width="360" height="360" rx="72" fill="url(#g_inner_dominion_2)" stroke="#DC913F" stroke-width="4"/>
<path d="M 100 88 Q 170 68 250 78 Q 330 88 396 146 Q 370 138 326 132 Q 250 120 178 124 Q 130 126 96 138 Z" fill="#FFD9A6" opacity="0.11"/>
<path d="M 88 390 Q 170 418 252 412 Q 330 406 398 374 Q 354 404 298 422 Q 210 450 110 432 Z" fill="#A1611D" opacity="0.12"/>


<path d="M 108 92 L 134 92 L 156 112 L 130 112 Z" fill="none" stroke="#FFD69D" stroke-width="4"/>
<path d="M 108 126 L 124 126 L 140 138 L 124 138 Z" fill="none" stroke="#834F17" stroke-width="3"/>
<path d="M 404 92 L 378 92 L 356 112 L 382 112 Z" fill="none" stroke="#FFD69D" stroke-width="4"/>
<path d="M 404 126 L 388 126 L 372 138 L 388 138 Z" fill="none" stroke="#834F17" stroke-width="3"/>

<circle cx="256" cy="182" r="102" fill="none" stroke="#FFD8A4" stroke-width="4" opacity="0.70"/>
<circle cx="256" cy="182" r="88" fill="url(#g_medal_dominion_2)" stroke="#DA8E3C" stroke-width="6"/>
<circle cx="256" cy="182" r="72" fill="none" stroke="#FFD7A1" stroke-width="3.2" opacity="0.86"/>
<circle cx="256" cy="182" r="60" fill="none" stroke="#6F4314" stroke-width="2.5" opacity="0.65"/>
<line x1="256.00" y1="128.00" x2="256.00" y2="100.00" stroke="#AB671F" stroke-width="5" stroke-linecap="round" opacity="0.16"/>
<line x1="276.66" y1="132.11" x2="287.38" y2="106.24" stroke="#AB671F" stroke-width="5" stroke-linecap="round" opacity="0.16"/>
<line x1="294.18" y1="143.82" x2="313.98" y2="124.02" stroke="#AB671F" stroke-width="5" stroke-linecap="round" opacity="0.16"/>
<line x1="305.89" y1="161.34" x2="331.76" y2="150.62" stroke="#AB671F" stroke-width="5" stroke-linecap="round" opacity="0.16"/>
<line x1="310.00" y1="182.00" x2="338.00" y2="182.00" stroke="#AB671F" stroke-width="5" stroke-linecap="round" opacity="0.16"/>
<line x1="305.89" y1="202.66" x2="331.76" y2="213.38" stroke="#AB671F" stroke-width="5" stroke-linecap="round" opacity="0.16"/>
<line x1="294.18" y1="220.18" x2="313.98" y2="239.98" stroke="#AB671F" stroke-width="5" stroke-linecap="round" opacity="0.16"/>
<line x1="276.66" y1="231.89" x2="287.38" y2="257.76" stroke="#AB671F" stroke-width="5" stroke-linecap="round" opacity="0.16"/>
<line x1="256.00" y1="236.00" x2="256.00" y2="264.00" stroke="#AB671F" stroke-width="5" stroke-linecap="round" opacity="0.16"/>
<line x1="235.34" y1="231.89" x2="224.62" y2="257.76" stroke="#AB671F" stroke-width="5" stroke-linecap="round" opacity="0.16"/>
<line x1="217.82" y1="220.18" x2="198.02" y2="239.98" stroke="#AB671F" stroke-width="5" stroke-linecap="round" opacity="0.16"/>
<line x1="206.11" y1="202.66" x2="180.24" y2="213.38" stroke="#AB671F" stroke-width="5" stroke-linecap="round" opacity="0.16"/>
<line x1="202.00" y1="182.00" x2="174.00" y2="182.00" stroke="#AB671F" stroke-width="5" stroke-linecap="round" opacity="0.16"/>
<line x1="206.11" y1="161.34" x2="180.24" y2="150.62" stroke="#AB671F" stroke-width="5" stroke-linecap="round" opacity="0.16"/>
<line x1="217.82" y1="143.82" x2="198.02" y2="124.02" stroke="#AB671F" stroke-width="5" stroke-linecap="round" opacity="0.16"/>
<line x1="235.34" y1="132.11" x2="224.62" y2="106.24" stroke="#AB671F" stroke-width="5" stroke-linecap="round" opacity="0.16"/>
<path d="M 174 154 Q 224 126 284 136 Q 318 142 346 164 Q 330 160 300 160 Q 238 160 194 176 Q 180 180 168 188 Z" fill="#FFDAA8" opacity="0.18"/>
<path d="M 242.00 88.00 L 244.53 94.52 L 251.51 94.91 L 246.09 99.33 L 247.88 106.09 L 242.00 102.30 L 236.12 106.09 L 237.91 99.33 L 232.49 94.91 L 239.47 94.52 Z" fill="#FFD7A1" stroke="#834F17" stroke-width="2.2"/>
<path d="M 270.00 88.00 L 272.53 94.52 L 279.51 94.91 L 274.09 99.33 L 275.88 106.09 L 270.00 102.30 L 264.12 106.09 L 265.91 99.33 L 260.49 94.91 L 267.47 94.52 Z" fill="#FFD7A1" stroke="#834F17" stroke-width="2.2"/>

<g transform="translate(256,182)">
  <path d="M -58 42 L -38 -32 L -8 2 L 16 -42 L 46 2 L 66 -18 L 54 42 Z" fill="none" stroke="#FFD7A1" stroke-width="8.50" stroke-linejoin="round" stroke-linecap="round" transform="translate(-1.6,-1.6)" opacity="0.72"/>
<path d="M -58 42 L -38 -32 L -8 2 L 16 -42 L 46 2 L 66 -18 L 54 42 Z" fill="none" stroke="#1C130B" stroke-width="8.50" stroke-linejoin="round" stroke-linecap="round" transform="translate(1.9,1.9)" opacity="0.55"/>
<path d="M -58 42 L -38 -32 L -8 2 L 16 -42 L 46 2 L 66 -18 L 54 42 Z" fill="none" stroke="#6F4314" stroke-width="7" stroke-linejoin="round" stroke-linecap="round"/>
<path d="M -56 42 L 54 42 L 54 60 L -56 60 Z" fill="none" stroke="#FFD7A1" stroke-width="8.50" stroke-linejoin="round" stroke-linecap="round" transform="translate(-1.6,-1.6)" opacity="0.72"/>
<path d="M -56 42 L 54 42 L 54 60 L -56 60 Z" fill="none" stroke="#1C130B" stroke-width="8.50" stroke-linejoin="round" stroke-linecap="round" transform="translate(1.9,1.9)" opacity="0.55"/>
<path d="M -56 42 L 54 42 L 54 60 L -56 60 Z" fill="none" stroke="#6F4314" stroke-width="7" stroke-linejoin="round" stroke-linecap="round"/>
</g>

<rect x="92" y="308" width="328" height="78" rx="28" fill="url(#g_plaque_dominion_2)" stroke="#EAA85B" stroke-width="4"/>
<rect x="104" y="318" width="304" height="58" rx="22" fill="none" stroke="#FFD8A4" stroke-width="3" opacity="0.82"/>
<path d="M 116 320 Q 168 302 232 306 Q 288 310 332 330 Q 286 322 230 326 Q 170 330 116 352 Z" fill="#FFD8A4" opacity="0.14"/>

<path d="M 7.51 6.20 L 7.51 23.97 L 10.20 23.97 Q 14.79 23.97 17.22 21.68 Q 19.65 19.40 19.65 15.05 Q 19.65 10.73 17.23 8.47 Q 14.82 6.20 10.20 6.20 L 7.51 6.20 Z M 0.00 0.52 L 7.91 0.52 Q 14.54 0.52 17.79 1.47 Q 21.03 2.41 23.35 4.68 Q 25.40 6.65 26.39 9.23 Q 27.39 11.80 27.39 15.05 Q 27.39 18.35 26.39 20.93 Q 25.40 23.52 23.35 25.48 Q 21.01 27.75 17.74 28.70 Q 14.46 29.64 7.91 29.64 L 0.00 29.64 L 0.00 0.52 Z M 46.44 5.44 Q 43.01 5.44 41.12 7.97 Q 39.23 10.51 39.23 15.11 Q 39.23 19.69 41.12 22.23 Q 43.01 24.76 46.44 24.76 Q 49.89 24.76 51.78 22.23 Q 53.67 19.69 53.67 15.11 Q 53.67 10.51 51.78 7.97 Q 49.89 5.44 46.44 5.44 Z M 46.44 0.00 Q 53.46 0.00 57.44 4.02 Q 61.42 8.03 61.42 15.11 Q 61.42 22.17 57.44 26.19 Q 53.46 30.21 46.44 30.21 Q 39.44 30.21 35.46 26.19 Q 31.47 22.17 31.47 15.11 Q 31.47 8.03 35.46 4.02 Q 39.44 0.00 46.44 0.00 Z M 67.09 0.52 L 76.65 0.52 L 83.27 16.10 L 89.94 0.52 L 99.48 0.52 L 99.48 29.64 L 92.38 29.64 L 92.38 8.34 L 85.67 24.04 L 80.91 24.04 L 74.21 8.34 L 74.21 29.64 L 67.09 29.64 L 67.09 0.52 Z M 106.83 0.52 L 114.34 0.52 L 114.34 29.64 L 106.83 29.64 L 106.83 0.52 Z M 121.69 0.52 L 130.07 0.52 L 140.66 20.49 L 140.66 0.52 L 147.78 0.52 L 147.78 29.64 L 139.39 29.64 L 128.80 9.67 L 128.80 29.64 L 121.69 29.64 L 121.69 0.52 Z M 155.11 0.52 L 162.61 0.52 L 162.61 29.64 L 155.11 29.64 L 155.11 0.52 Z M 183.26 5.44 Q 179.83 5.44 177.94 7.97 Q 176.05 10.51 176.05 15.11 Q 176.05 19.69 177.94 22.23 Q 179.83 24.76 183.26 24.76 Q 186.71 24.76 188.60 22.23 Q 190.49 19.69 190.49 15.11 Q 190.49 10.51 188.60 7.97 Q 186.71 5.44 183.26 5.44 Z M 183.26 0.00 Q 190.28 0.00 194.26 4.02 Q 198.24 8.03 198.24 15.11 Q 198.24 22.17 194.26 26.19 Q 190.28 30.21 183.26 30.21 Q 176.26 30.21 172.27 26.19 Q 168.29 22.17 168.29 15.11 Q 168.29 8.03 172.27 4.02 Q 176.26 0.00 183.26 0.00 Z M 203.91 0.52 L 212.29 0.52 L 222.88 20.49 L 222.88 0.52 L 230.00 0.52 L 230.00 29.64 L 221.61 29.64 L 211.03 9.67 L 211.03 29.64 L 203.91 29.64 L 203.91 0.52 Z" fill="#F8CD93" stroke="none" transform="translate(139.70,331.60)" opacity="0.78"/>
<path d="M 7.51 6.20 L 7.51 23.97 L 10.20 23.97 Q 14.79 23.97 17.22 21.68 Q 19.65 19.40 19.65 15.05 Q 19.65 10.73 17.23 8.47 Q 14.82 6.20 10.20 6.20 L 7.51 6.20 Z M 0.00 0.52 L 7.91 0.52 Q 14.54 0.52 17.79 1.47 Q 21.03 2.41 23.35 4.68 Q 25.40 6.65 26.39 9.23 Q 27.39 11.80 27.39 15.05 Q 27.39 18.35 26.39 20.93 Q 25.40 23.52 23.35 25.48 Q 21.01 27.75 17.74 28.70 Q 14.46 29.64 7.91 29.64 L 0.00 29.64 L 0.00 0.52 Z M 46.44 5.44 Q 43.01 5.44 41.12 7.97 Q 39.23 10.51 39.23 15.11 Q 39.23 19.69 41.12 22.23 Q 43.01 24.76 46.44 24.76 Q 49.89 24.76 51.78 22.23 Q 53.67 19.69 53.67 15.11 Q 53.67 10.51 51.78 7.97 Q 49.89 5.44 46.44 5.44 Z M 46.44 0.00 Q 53.46 0.00 57.44 4.02 Q 61.42 8.03 61.42 15.11 Q 61.42 22.17 57.44 26.19 Q 53.46 30.21 46.44 30.21 Q 39.44 30.21 35.46 26.19 Q 31.47 22.17 31.47 15.11 Q 31.47 8.03 35.46 4.02 Q 39.44 0.00 46.44 0.00 Z M 67.09 0.52 L 76.65 0.52 L 83.27 16.10 L 89.94 0.52 L 99.48 0.52 L 99.48 29.64 L 92.38 29.64 L 92.38 8.34 L 85.67 24.04 L 80.91 24.04 L 74.21 8.34 L 74.21 29.64 L 67.09 29.64 L 67.09 0.52 Z M 106.83 0.52 L 114.34 0.52 L 114.34 29.64 L 106.83 29.64 L 106.83 0.52 Z M 121.69 0.52 L 130.07 0.52 L 140.66 20.49 L 140.66 0.52 L 147.78 0.52 L 147.78 29.64 L 139.39 29.64 L 128.80 9.67 L 128.80 29.64 L 121.69 29.64 L 121.69 0.52 Z M 155.11 0.52 L 162.61 0.52 L 162.61 29.64 L 155.11 29.64 L 155.11 0.52 Z M 183.26 5.44 Q 179.83 5.44 177.94 7.97 Q 176.05 10.51 176.05 15.11 Q 176.05 19.69 177.94 22.23 Q 179.83 24.76 183.26 24.76 Q 186.71 24.76 188.60 22.23 Q 190.49 19.69 190.49 15.11 Q 190.49 10.51 188.60 7.97 Q 186.71 5.44 183.26 5.44 Z M 183.26 0.00 Q 190.28 0.00 194.26 4.02 Q 198.24 8.03 198.24 15.11 Q 198.24 22.17 194.26 26.19 Q 190.28 30.21 183.26 30.21 Q 176.26 30.21 172.27 26.19 Q 168.29 22.17 168.29 15.11 Q 168.29 8.03 172.27 4.02 Q 176.26 0.00 183.26 0.00 Z M 203.91 0.52 L 212.29 0.52 L 222.88 20.49 L 222.88 0.52 L 230.00 0.52 L 230.00 29.64 L 221.61 29.64 L 211.03 9.67 L 211.03 29.64 L 203.91 29.64 L 203.91 0.52 Z" fill="#6F4214" stroke="none" transform="translate(142.50,334.40)" opacity="0.58"/>
<path d="M 7.51 6.20 L 7.51 23.97 L 10.20 23.97 Q 14.79 23.97 17.22 21.68 Q 19.65 19.40 19.65 15.05 Q 19.65 10.73 17.23 8.47 Q 14.82 6.20 10.20 6.20 L 7.51 6.20 Z M 0.00 0.52 L 7.91 0.52 Q 14.54 0.52 17.79 1.47 Q 21.03 2.41 23.35 4.68 Q 25.40 6.65 26.39 9.23 Q 27.39 11.80 27.39 15.05 Q 27.39 18.35 26.39 20.93 Q 25.40 23.52 23.35 25.48 Q 21.01 27.75 17.74 28.70 Q 14.46 29.64 7.91 29.64 L 0.00 29.64 L 0.00 0.52 Z M 46.44 5.44 Q 43.01 5.44 41.12 7.97 Q 39.23 10.51 39.23 15.11 Q 39.23 19.69 41.12 22.23 Q 43.01 24.76 46.44 24.76 Q 49.89 24.76 51.78 22.23 Q 53.67 19.69 53.67 15.11 Q 53.67 10.51 51.78 7.97 Q 49.89 5.44 46.44 5.44 Z M 46.44 0.00 Q 53.46 0.00 57.44 4.02 Q 61.42 8.03 61.42 15.11 Q 61.42 22.17 57.44 26.19 Q 53.46 30.21 46.44 30.21 Q 39.44 30.21 35.46 26.19 Q 31.47 22.17 31.47 15.11 Q 31.47 8.03 35.46 4.02 Q 39.44 0.00 46.44 0.00 Z M 67.09 0.52 L 76.65 0.52 L 83.27 16.10 L 89.94 0.52 L 99.48 0.52 L 99.48 29.64 L 92.38 29.64 L 92.38 8.34 L 85.67 24.04 L 80.91 24.04 L 74.21 8.34 L 74.21 29.64 L 67.09 29.64 L 67.09 0.52 Z M 106.83 0.52 L 114.34 0.52 L 114.34 29.64 L 106.83 29.64 L 106.83 0.52 Z M 121.69 0.52 L 130.07 0.52 L 140.66 20.49 L 140.66 0.52 L 147.78 0.52 L 147.78 29.64 L 139.39 29.64 L 128.80 9.67 L 128.80 29.64 L 121.69 29.64 L 121.69 0.52 Z M 155.11 0.52 L 162.61 0.52 L 162.61 29.64 L 155.11 29.64 L 155.11 0.52 Z M 183.26 5.44 Q 179.83 5.44 177.94 7.97 Q 176.05 10.51 176.05 15.11 Q 176.05 19.69 177.94 22.23 Q 179.83 24.76 183.26 24.76 Q 186.71 24.76 188.60 22.23 Q 190.49 19.69 190.49 15.11 Q 190.49 10.51 188.60 7.97 Q 186.71 5.44 183.26 5.44 Z M 183.26 0.00 Q 190.28 0.00 194.26 4.02 Q 198.24 8.03 198.24 15.11 Q 198.24 22.17 194.26 26.19 Q 190.28 30.21 183.26 30.21 Q 176.26 30.21 172.27 26.19 Q 168.29 22.17 168.29 15.11 Q 168.29 8.03 172.27 4.02 Q 176.26 0.00 183.26 0.00 Z M 203.91 0.52 L 212.29 0.52 L 222.88 20.49 L 222.88 0.52 L 230.00 0.52 L 230.00 29.64 L 221.61 29.64 L 211.03 9.67 L 211.03 29.64 L 203.91 29.64 L 203.91 0.52 Z" fill="#F5BC6D" stroke="#754615" stroke-width="1.5" transform="translate(141.00,332.90)"/>

<g>
  <circle cx="256" cy="436" r="36" fill="#1C140C" opacity="0.34"/>
  <circle cx="256" cy="426" r="34" fill="url(#g_coin_dominion_2)" stroke="#DE9342" stroke-width="4"/>
  <circle cx="256" cy="426" r="26" fill="none" stroke="#FFD7A1" stroke-width="3.2" opacity="0.84"/>
  <path d="M 232 422 Q 256 410 280 422" stroke="#FFDAA8" stroke-width="4" opacity="0.45" fill="none" stroke-linecap="round"/>
  
<path d="M 0.00 38.00 L 0.00 34.92 L 4.86 34.92 L 4.86 3.08 L 0.00 3.08 L 0.00 0.00 L 19.55 0.00 L 19.55 3.08 L 14.66 3.08 L 14.66 34.92 L 19.55 34.92 L 19.55 38.00 L 0.00 38.00 Z M 24.38 38.00 L 24.38 34.92 L 29.24 34.92 L 29.24 3.08 L 24.38 3.08 L 24.38 0.00 L 43.93 0.00 L 43.93 3.08 L 39.04 3.08 L 39.04 34.92 L 43.93 34.92 L 43.93 38.00 L 24.38 38.00 Z" fill="#F8CD93" stroke="none" transform="translate(232.74,405.70)" opacity="0.78"/>
<path d="M 0.00 38.00 L 0.00 34.92 L 4.86 34.92 L 4.86 3.08 L 0.00 3.08 L 0.00 0.00 L 19.55 0.00 L 19.55 3.08 L 14.66 3.08 L 14.66 34.92 L 19.55 34.92 L 19.55 38.00 L 0.00 38.00 Z M 24.38 38.00 L 24.38 34.92 L 29.24 34.92 L 29.24 3.08 L 24.38 3.08 L 24.38 0.00 L 43.93 0.00 L 43.93 3.08 L 39.04 3.08 L 39.04 34.92 L 43.93 34.92 L 43.93 38.00 L 24.38 38.00 Z" fill="#6F4214" stroke="none" transform="translate(235.54,408.50)" opacity="0.58"/>
<path d="M 0.00 38.00 L 0.00 34.92 L 4.86 34.92 L 4.86 3.08 L 0.00 3.08 L 0.00 0.00 L 19.55 0.00 L 19.55 3.08 L 14.66 3.08 L 14.66 34.92 L 19.55 34.92 L 19.55 38.00 L 0.00 38.00 Z M 24.38 38.00 L 24.38 34.92 L 29.24 34.92 L 29.24 3.08 L 24.38 3.08 L 24.38 0.00 L 43.93 0.00 L 43.93 3.08 L 39.04 3.08 L 39.04 34.92 L 43.93 34.92 L 43.93 38.00 L 24.38 38.00 Z" fill="#F5BC6D" stroke="#754615" stroke-width="1.5" transform="translate(234.04,407.00)"/>
</g>
</svg>