<svg xmlns="http://www.w3.org/2000/svg" width="512" height="512" viewBox="0 0 512 512" role="img" aria-labelledby="title desc">
<title id="title">Immortal II</title>
<desc id="desc">Premium engraved plate style Swing rank badge for Immortal II.</desc>

<defs>
  <linearGradient id="g_plate_immortal_2" x1="0.05" y1="0.04" x2="0.92" y2="0.96">
    <stop offset="0%" stop-color="#FFA6DE"/>
    <stop offset="18%" stop-color="#F48ACF"/>
    <stop offset="54%" stop-color="#DC4EAC"/>
    <stop offset="100%" stop-color="#8C276A"/>
  </linearGradient>
  <linearGradient id="g_inner_immortal_2" x1="0.10" y1="0.08" x2="0.90" y2="0.92">
    <stop offset="0%" stop-color="#F486CE"/>
    <stop offset="100%" stop-color="#9C2B77"/>
  </linearGradient>
  <linearGradient id="g_plaque_immortal_2" x1="0.10" y1="0.08" x2="0.92" y2="0.92">
    <stop offset="0%" stop-color="#F592D3"/>
    <stop offset="45%" stop-color="#E776C0"/>
    <stop offset="100%" stop-color="#CC429D"/>
  </linearGradient>
  <linearGradient id="g_coin_immortal_2" x1="0.14" y1="0.10" x2="0.88" y2="0.94">
    <stop offset="0%" stop-color="#F48ED1"/>
    <stop offset="52%" stop-color="#E672BE"/>
    <stop offset="100%" stop-color="#CE44A0"/>
  </linearGradient>
  <radialGradient id="g_medal_immortal_2" cx="38%" cy="28%" r="80%">
    <stop offset="0%" stop-color="#FF97D9"/>
    <stop offset="58%" stop-color="#E970BF"/>
    <stop offset="100%" stop-color="#D146A2"/>
  </radialGradient>
</defs>

<rect x="44" y="44" width="420" height="420" rx="94" fill="#1E0D19" opacity="0.42"/>
<rect x="28" y="28" width="420" height="420" rx="94" fill="url(#g_plate_immortal_2)" stroke="#EE6CC0" stroke-width="9"/>
<rect x="42" y="42" width="392" height="392" rx="82" fill="none" stroke="#FFA8DF" stroke-width="6" opacity="0.88"/>
<rect x="58" y="58" width="360" height="360" rx="72" fill="url(#g_inner_immortal_2)" stroke="#D646A4" stroke-width="4"/>
<path d="M 100 88 Q 170 68 250 78 Q 330 88 396 146 Q 370 138 326 132 Q 250 120 178 124 Q 130 126 96 138 Z" fill="#FFA8DF" opacity="0.11"/>
<path d="M 88 390 Q 170 418 252 412 Q 330 406 398 374 Q 354 404 298 422 Q 210 450 110 432 Z" fill="#932970" opacity="0.12"/>


<path d="M 108 92 L 134 92 L 156 112 L 130 112 Z" fill="none" stroke="#FF9FDC" stroke-width="4"/>
<path d="M 108 126 L 124 126 L 140 138 L 124 138 Z" fill="none" stroke="#78215B" stroke-width="3"/>
<path d="M 404 92 L 378 92 L 356 112 L 382 112 Z" fill="none" stroke="#FF9FDC" stroke-width="4"/>
<path d="M 404 126 L 388 126 L 372 138 L 388 138 Z" fill="none" stroke="#78215B" stroke-width="3"/>

<circle cx="256" cy="182" r="102" fill="none" stroke="#FFA6DE" stroke-width="4" opacity="0.70"/>
<circle cx="256" cy="182" r="88" fill="url(#g_medal_immortal_2)" stroke="#D344A2" stroke-width="6"/>
<circle cx="256" cy="182" r="72" fill="none" stroke="#FFA2DD" stroke-width="3.2" opacity="0.86"/>
<circle cx="256" cy="182" r="60" fill="none" stroke="#651C4D" stroke-width="2.5" opacity="0.65"/>
<line x1="256.00" y1="128.00" x2="256.00" y2="100.00" stroke="#9C2B77" stroke-width="5" stroke-linecap="round" opacity="0.16"/>
<line x1="276.66" y1="132.11" x2="287.38" y2="106.24" stroke="#9C2B77" stroke-width="5" stroke-linecap="round" opacity="0.16"/>
<line x1="294.18" y1="143.82" x2="313.98" y2="124.02" stroke="#9C2B77" stroke-width="5" stroke-linecap="round" opacity="0.16"/>
<line x1="305.89" y1="161.34" x2="331.76" y2="150.62" stroke="#9C2B77" stroke-width="5" stroke-linecap="round" opacity="0.16"/>
<line x1="310.00" y1="182.00" x2="338.00" y2="182.00" stroke="#9C2B77" stroke-width="5" stroke-linecap="round" opacity="0.16"/>
<line x1="305.89" y1="202.66" x2="331.76" y2="213.38" stroke="#9C2B77" stroke-width="5" stroke-linecap="round" opacity="0.16"/>
<line x1="294.18" y1="220.18" x2="313.98" y2="239.98" stroke="#9C2B77" stroke-width="5" stroke-linecap="round" opacity="0.16"/>
<line x1="276.66" y1="231.89" x2="287.38" y2="257.76" stroke="#9C2B77" stroke-width="5" stroke-linecap="round" opacity="0.16"/>
<line x1="256.00" y1="236.00" x2="256.00" y2="264.00" stroke="#9C2B77" stroke-width="5" stroke-linecap="round" opacity="0.16"/>
<line x1="235.34" y1="231.89" x2="224.62" y2="257.76" stroke="#9C2B77" stroke-width="5" stroke-linecap="round" opacity="0.16"/>
<line x1="217.82" y1="220.18" x2="198.02" y2="239.98" stroke="#9C2B77" stroke-width="5" stroke-linecap="round" opacity="0.16"/>
<line x1="206.11" y1="202.66" x2="180.24" y2="213.38" stroke="#9C2B77" stroke-width="5" stroke-linecap="round" opacity="0.16"/>
<line x1="202.00" y1="182.00" x2="174.00" y2="182.00" stroke="#9C2B77" stroke-width="5" stroke-linecap="round" opacity="0.16"/>
<line x1="206.11" y1="161.34" x2="180.24" y2="150.62" stroke="#9C2B77" stroke-width="5" stroke-linecap="round" opacity="0.16"/>
<line x1="217.82" y1="143.82" x2="198.02" y2="124.02" stroke="#9C2B77" stroke-width="5" stroke-linecap="round" opacity="0.16"/>
<line x1="235.34" y1="132.11" x2="224.62" y2="106.24" stroke="#9C2B77" stroke-width="5" stroke-linecap="round" opacity="0.16"/>
<path d="M 174 154 Q 224 126 284 136 Q 318 142 346 164 Q 330 160 300 160 Q 238 160 194 176 Q 180 180 168 188 Z" fill="#FFAAE0" opacity="0.18"/>
<path d="M 242.00 88.00 L 244.53 94.52 L 251.51 94.91 L 246.09 99.33 L 247.88 106.09 L 242.00 102.30 L 236.12 106.09 L 237.91 99.33 L 232.49 94.91 L 239.47 94.52 Z" fill="#FFA2DD" stroke="#78215B" stroke-width="2.2"/>
<path d="M 270.00 88.00 L 272.53 94.52 L 279.51 94.91 L 274.09 99.33 L 275.88 106.09 L 270.00 102.30 L 264.12 106.09 L 265.91 99.33 L 260.49 94.91 L 267.47 94.52 Z" fill="#FFA2DD" stroke="#78215B" stroke-width="2.2"/>

<g transform="translate(256,182)">
  <path d="M 0 -66 Q 46 -34 36 24 Q 28 62 0 72 Q -28 62 -36 24 Q -46 -34 0 -66 Z" fill="none" stroke="#FFA2DD" stroke-width="8.50" stroke-linejoin="round" stroke-linecap="round" transform="translate(-1.6,-1.6)" opacity="0.72"/>
<path d="M 0 -66 Q 46 -34 36 24 Q 28 62 0 72 Q -28 62 -36 24 Q -46 -34 0 -66 Z" fill="none" stroke="#1C0C18" stroke-width="8.50" stroke-linejoin="round" stroke-linecap="round" transform="translate(1.9,1.9)" opacity="0.55"/>
<path d="M 0 -66 Q 46 -34 36 24 Q 28 62 0 72 Q -28 62 -36 24 Q -46 -34 0 -66 Z" fill="none" stroke="#651C4D" stroke-width="7" stroke-linejoin="round" stroke-linecap="round"/>
<path d="M 0 -34 Q 20 -14 16 18 Q 13 39 0 50 Q -13 39 -16 18 Q -20 -14 0 -34 Z" fill="none" stroke="#FFA2DD" stroke-width="8.50" stroke-linejoin="round" stroke-linecap="round" transform="translate(-1.6,-1.6)" opacity="0.72"/>
<path d="M 0 -34 Q 20 -14 16 18 Q 13 39 0 50 Q -13 39 -16 18 Q -20 -14 0 -34 Z" fill="none" stroke="#1C0C18" stroke-width="8.50" stroke-linejoin="round" stroke-linecap="round" transform="translate(1.9,1.9)" opacity="0.55"/>
<path d="M 0 -34 Q 20 -14 16 18 Q 13 39 0 50 Q -13 39 -16 18 Q -20 -14 0 -34 Z" fill="none" stroke="#651C4D" stroke-width="7" stroke-linejoin="round" stroke-linecap="round"/>
</g>

<rect x="92" y="308" width="328" height="78" rx="28" fill="url(#g_plaque_immortal_2)" stroke="#E85EB8" stroke-width="4"/>
<rect x="104" y="318" width="304" height="58" rx="22" fill="none" stroke="#FFA6DE" stroke-width="3" opacity="0.82"/>
<path d="M 116 320 Q 168 302 232 306 Q 288 310 332 330 Q 286 322 230 326 Q 170 330 116 352 Z" fill="#FFA6DE" opacity="0.14"/>

<path d="M 0.00 0.52 L 7.41 0.52 L 7.41 29.26 L 0.00 29.26 L 0.00 0.52 Z M 14.67 0.52 L 24.10 0.52 L 30.64 15.90 L 37.23 0.52 L 46.64 0.52 L 46.64 29.26 L 39.64 29.26 L 39.64 8.24 L 33.01 23.73 L 28.31 23.73 L 21.69 8.24 L 21.69 29.26 L 14.67 29.26 L 14.67 0.52 Z M 53.90 0.52 L 63.33 0.52 L 69.87 15.90 L 76.46 0.52 L 85.87 0.52 L 85.87 29.26 L 78.87 29.26 L 78.87 8.24 L 72.25 23.73 L 67.55 23.73 L 60.92 8.24 L 60.92 29.26 L 53.90 29.26 L 53.90 0.52 Z M 106.26 5.37 Q 102.87 5.37 101.01 7.87 Q 99.14 10.37 99.14 14.92 Q 99.14 19.44 101.01 21.95 Q 102.87 24.45 106.26 24.45 Q 109.67 24.45 111.53 21.95 Q 113.40 19.44 113.40 14.92 Q 113.40 10.37 111.53 7.87 Q 109.67 5.37 106.26 5.37 Z M 106.26 0.00 Q 113.19 0.00 117.11 3.97 Q 121.04 7.93 121.04 14.92 Q 121.04 21.89 117.11 25.85 Q 113.19 29.82 106.26 29.82 Q 99.35 29.82 95.41 25.85 Q 91.48 21.89 91.48 14.92 Q 91.48 7.93 95.41 3.97 Q 99.35 0.00 106.26 0.00 Z M 137.17 13.26 Q 139.50 13.26 140.51 12.40 Q 141.52 11.53 141.52 9.55 Q 141.52 7.58 140.51 6.74 Q 139.50 5.89 137.17 5.89 L 134.06 5.89 L 134.06 13.26 L 137.17 13.26 Z M 134.06 18.38 L 134.06 29.26 L 126.65 29.26 L 126.65 0.52 L 137.96 0.52 Q 143.64 0.52 146.29 2.43 Q 148.93 4.33 148.93 8.45 Q 148.93 11.30 147.55 13.13 Q 146.18 14.96 143.41 15.83 Q 144.93 16.17 146.13 17.40 Q 147.34 18.62 148.57 21.10 L 152.59 29.26 L 144.70 29.26 L 141.20 22.12 Q 140.14 19.96 139.05 19.18 Q 137.96 18.38 136.15 18.38 L 134.06 18.38 Z M 151.80 0.52 L 178.29 0.52 L 178.29 6.12 L 168.76 6.12 L 168.76 29.26 L 161.35 29.26 L 161.35 6.12 L 151.80 6.12 L 151.80 0.52 Z M 196.51 24.02 L 184.92 24.02 L 183.09 29.26 L 175.64 29.26 L 186.28 0.52 L 195.12 0.52 L 205.77 29.26 L 198.32 29.26 L 196.51 24.02 Z M 186.77 18.69 L 194.64 18.69 L 190.71 7.26 L 186.77 18.69 Z M 209.58 0.52 L 216.99 0.52 L 216.99 23.66 L 230.00 23.66 L 230.00 29.26 L 209.58 29.26 L 209.58 0.52 Z" fill="#F895D5" stroke="none" transform="translate(139.70,331.79)" opacity="0.78"/>
<path d="M 0.00 0.52 L 7.41 0.52 L 7.41 29.26 L 0.00 29.26 L 0.00 0.52 Z M 14.67 0.52 L 24.10 0.52 L 30.64 15.90 L 37.23 0.52 L 46.64 0.52 L 46.64 29.26 L 39.64 29.26 L 39.64 8.24 L 33.01 23.73 L 28.31 23.73 L 21.69 8.24 L 21.69 29.26 L 14.67 29.26 L 14.67 0.52 Z M 53.90 0.52 L 63.33 0.52 L 69.87 15.90 L 76.46 0.52 L 85.87 0.52 L 85.87 29.26 L 78.87 29.26 L 78.87 8.24 L 72.25 23.73 L 67.55 23.73 L 60.92 8.24 L 60.92 29.26 L 53.90 29.26 L 53.90 0.52 Z M 106.26 5.37 Q 102.87 5.37 101.01 7.87 Q 99.14 10.37 99.14 14.92 Q 99.14 19.44 101.01 21.95 Q 102.87 24.45 106.26 24.45 Q 109.67 24.45 111.53 21.95 Q 113.40 19.44 113.40 14.92 Q 113.40 10.37 111.53 7.87 Q 109.67 5.37 106.26 5.37 Z M 106.26 0.00 Q 113.19 0.00 117.11 3.97 Q 121.04 7.93 121.04 14.92 Q 121.04 21.89 117.11 25.85 Q 113.19 29.82 106.26 29.82 Q 99.35 29.82 95.41 25.85 Q 91.48 21.89 91.48 14.92 Q 91.48 7.93 95.41 3.97 Q 99.35 0.00 106.26 0.00 Z M 137.17 13.26 Q 139.50 13.26 140.51 12.40 Q 141.52 11.53 141.52 9.55 Q 141.52 7.58 140.51 6.74 Q 139.50 5.89 137.17 5.89 L 134.06 5.89 L 134.06 13.26 L 137.17 13.26 Z M 134.06 18.38 L 134.06 29.26 L 126.65 29.26 L 126.65 0.52 L 137.96 0.52 Q 143.64 0.52 146.29 2.43 Q 148.93 4.33 148.93 8.45 Q 148.93 11.30 147.55 13.13 Q 146.18 14.96 143.41 15.83 Q 144.93 16.17 146.13 17.40 Q 147.34 18.62 148.57 21.10 L 152.59 29.26 L 144.70 29.26 L 141.20 22.12 Q 140.14 19.96 139.05 19.18 Q 137.96 18.38 136.15 18.38 L 134.06 18.38 Z M 151.80 0.52 L 178.29 0.52 L 178.29 6.12 L 168.76 6.12 L 168.76 29.26 L 161.35 29.26 L 161.35 6.12 L 151.80 6.12 L 151.80 0.52 Z M 196.51 24.02 L 184.92 24.02 L 183.09 29.26 L 175.64 29.26 L 186.28 0.52 L 195.12 0.52 L 205.77 29.26 L 198.32 29.26 L 196.51 24.02 Z M 186.77 18.69 L 194.64 18.69 L 190.71 7.26 L 186.77 18.69 Z M 209.58 0.52 L 216.99 0.52 L 216.99 23.66 L 230.00 23.66 L 230.00 29.26 L 209.58 29.26 L 209.58 0.52 Z" fill="#661C4D" stroke="none" transform="translate(142.50,334.59)" opacity="0.58"/>
<path d="M 0.00 0.52 L 7.41 0.52 L 7.41 29.26 L 0.00 29.26 L 0.00 0.52 Z M 14.67 0.52 L 24.10 0.52 L 30.64 15.90 L 37.23 0.52 L 46.64 0.52 L 46.64 29.26 L 39.64 29.26 L 39.64 8.24 L 33.01 23.73 L 28.31 23.73 L 21.69 8.24 L 21.69 29.26 L 14.67 29.26 L 14.67 0.52 Z M 53.90 0.52 L 63.33 0.52 L 69.87 15.90 L 76.46 0.52 L 85.87 0.52 L 85.87 29.26 L 78.87 29.26 L 78.87 8.24 L 72.25 23.73 L 67.55 23.73 L 60.92 8.24 L 60.92 29.26 L 53.90 29.26 L 53.90 0.52 Z M 106.26 5.37 Q 102.87 5.37 101.01 7.87 Q 99.14 10.37 99.14 14.92 Q 99.14 19.44 101.01 21.95 Q 102.87 24.45 106.26 24.45 Q 109.67 24.45 111.53 21.95 Q 113.40 19.44 113.40 14.92 Q 113.40 10.37 111.53 7.87 Q 109.67 5.37 106.26 5.37 Z M 106.26 0.00 Q 113.19 0.00 117.11 3.97 Q 121.04 7.93 121.04 14.92 Q 121.04 21.89 117.11 25.85 Q 113.19 29.82 106.26 29.82 Q 99.35 29.82 95.41 25.85 Q 91.48 21.89 91.48 14.92 Q 91.48 7.93 95.41 3.97 Q 99.35 0.00 106.26 0.00 Z M 137.17 13.26 Q 139.50 13.26 140.51 12.40 Q 141.52 11.53 141.52 9.55 Q 141.52 7.58 140.51 6.74 Q 139.50 5.89 137.17 5.89 L 134.06 5.89 L 134.06 13.26 L 137.17 13.26 Z M 134.06 18.38 L 134.06 29.26 L 126.65 29.26 L 126.65 0.52 L 137.96 0.52 Q 143.64 0.52 146.29 2.43 Q 148.93 4.33 148.93 8.45 Q 148.93 11.30 147.55 13.13 Q 146.18 14.96 143.41 15.83 Q 144.93 16.17 146.13 17.40 Q 147.34 18.62 148.57 21.10 L 152.59 29.26 L 144.70 29.26 L 141.20 22.12 Q 140.14 19.96 139.05 19.18 Q 137.96 18.38 136.15 18.38 L 134.06 18.38 Z M 151.80 0.52 L 178.29 0.52 L 178.29 6.12 L 168.76 6.12 L 168.76 29.26 L 161.35 29.26 L 161.35 6.12 L 151.80 6.12 L 151.80 0.52 Z M 196.51 24.02 L 184.92 24.02 L 183.09 29.26 L 175.64 29.26 L 186.28 0.52 L 195.12 0.52 L 205.77 29.26 L 198.32 29.26 L 196.51 24.02 Z M 186.77 18.69 L 194.64 18.69 L 190.71 7.26 L 186.77 18.69 Z M 209.58 0.52 L 216.99 0.52 L 216.99 23.66 L 230.00 23.66 L 230.00 29.26 L 209.58 29.26 L 209.58 0.52 Z" fill="#F570C6" stroke="#6B1E51" stroke-width="1.5" transform="translate(141.00,333.09)"/>

<g>
  <circle cx="256" cy="436" r="36" fill="#1D0D18" opacity="0.34"/>
  <circle cx="256" cy="426" r="34" fill="url(#g_coin_immortal_2)" stroke="#D948A7" stroke-width="4"/>
  <circle cx="256" cy="426" r="26" fill="none" stroke="#FFA2DD" stroke-width="3.2" opacity="0.84"/>
  <path d="M 232 422 Q 256 410 280 422" stroke="#FFAAE0" stroke-width="4" opacity="0.45" fill="none" stroke-linecap="round"/>
  
<path d="M 0.00 38.00 L 0.00 34.92 L 4.86 34.92 L 4.86 3.08 L 0.00 3.08 L 0.00 0.00 L 19.55 0.00 L 19.55 3.08 L 14.66 3.08 L 14.66 34.92 L 19.55 34.92 L 19.55 38.00 L 0.00 38.00 Z M 24.38 38.00 L 24.38 34.92 L 29.24 34.92 L 29.24 3.08 L 24.38 3.08 L 24.38 0.00 L 43.93 0.00 L 43.93 3.08 L 39.04 3.08 L 39.04 34.92 L 43.93 34.92 L 43.93 38.00 L 24.38 38.00 Z" fill="#F895D5" stroke="none" transform="translate(232.74,405.70)" opacity="0.78"/>
<path d="M 0.00 38.00 L 0.00 34.92 L 4.86 34.92 L 4.86 3.08 L 0.00 3.08 L 0.00 0.00 L 19.55 0.00 L 19.55 3.08 L 14.66 3.08 L 14.66 34.92 L 19.55 34.92 L 19.55 38.00 L 0.00 38.00 Z M 24.38 38.00 L 24.38 34.92 L 29.24 34.92 L 29.24 3.08 L 24.38 3.08 L 24.38 0.00 L 43.93 0.00 L 43.93 3.08 L 39.04 3.08 L 39.04 34.92 L 43.93 34.92 L 43.93 38.00 L 24.38 38.00 Z" fill="#661C4D" stroke="none" transform="translate(235.54,408.50)" opacity="0.58"/>
<path d="M 0.00 38.00 L 0.00 34.92 L 4.86 34.92 L 4.86 3.08 L 0.00 3.08 L 0.00 0.00 L 19.55 0.00 L 19.55 3.08 L 14.66 3.08 L 14.66 34.92 L 19.55 34.92 L 19.55 38.00 L 0.00 38.00 Z M 24.38 38.00 L 24.38 34.92 L 29.24 34.92 L 29.24 3.08 L 24.38 3.08 L 24.38 0.00 L 43.93 0.00 L 43.93 3.08 L 39.04 3.08 L 39.04 34.92 L 43.93 34.92 L 43.93 38.00 L 24.38 38.00 Z" fill="#F570C6" stroke="#6B1E51" stroke-width="1.5" transform="translate(234.04,407.00)"/>
</g>
</svg>