<svg xmlns="http://www.w3.org/2000/svg" width="512" height="512" viewBox="0 0 512 512" role="img" aria-labelledby="title desc">
<title id="title">Phantom I</title>
<desc id="desc">Premium engraved plate style Swing rank badge for Phantom I.</desc>

<defs>
  <linearGradient id="g_plate_phantom_1" x1="0.05" y1="0.04" x2="0.92" y2="0.96">
    <stop offset="0%" stop-color="#D1ADFF"/>
    <stop offset="18%" stop-color="#C694FF"/>
    <stop offset="54%" stop-color="#9D5BF3"/>
    <stop offset="100%" stop-color="#5D2EA9"/>
  </linearGradient>
  <linearGradient id="g_inner_phantom_1" x1="0.10" y1="0.08" x2="0.90" y2="0.92">
    <stop offset="0%" stop-color="#C490FF"/>
    <stop offset="100%" stop-color="#6833BD"/>
  </linearGradient>
  <linearGradient id="g_plaque_phantom_1" x1="0.10" y1="0.08" x2="0.92" y2="0.92">
    <stop offset="0%" stop-color="#CA9CFF"/>
    <stop offset="45%" stop-color="#B580F8"/>
    <stop offset="100%" stop-color="#8D4CEA"/>
  </linearGradient>
  <linearGradient id="g_coin_phantom_1" x1="0.14" y1="0.10" x2="0.88" y2="0.94">
    <stop offset="0%" stop-color="#C897FF"/>
    <stop offset="52%" stop-color="#B37CF7"/>
    <stop offset="100%" stop-color="#904FEB"/>
  </linearGradient>
  <radialGradient id="g_medal_phantom_1" cx="38%" cy="28%" r="80%">
    <stop offset="0%" stop-color="#CAA0FF"/>
    <stop offset="58%" stop-color="#AF7AF6"/>
    <stop offset="100%" stop-color="#9251ED"/>
  </radialGradient>
</defs>

<rect x="44" y="44" width="420" height="420" rx="94" fill="#160E25" opacity="0.42"/>
<rect x="28" y="28" width="420" height="420" rx="94" fill="url(#g_plate_phantom_1)" stroke="#AE78F6" stroke-width="9"/>
<rect x="42" y="42" width="392" height="392" rx="82" fill="none" stroke="#D2AFFF" stroke-width="6" opacity="0.88"/>
<rect x="58" y="58" width="360" height="360" rx="72" fill="url(#g_inner_phantom_1)" stroke="#9152EA" stroke-width="4"/>
<path d="M 100 88 Q 170 68 250 78 Q 330 88 396 146 Q 370 138 326 132 Q 250 120 178 124 Q 130 126 96 138 Z" fill="#D2AFFF" opacity="0.11"/>
<path d="M 88 390 Q 170 418 252 412 Q 330 406 398 374 Q 354 404 298 422 Q 210 450 110 432 Z" fill="#6230B2" opacity="0.12"/>


<path d="M 108 92 L 134 92 L 156 112 L 130 112 Z" fill="none" stroke="#CEA7FF" stroke-width="4"/>
<path d="M 108 126 L 124 126 L 140 138 L 124 138 Z" fill="none" stroke="#4F2790" stroke-width="3"/>
<path d="M 404 92 L 378 92 L 356 112 L 382 112 Z" fill="none" stroke="#CEA7FF" stroke-width="4"/>
<path d="M 404 126 L 388 126 L 372 138 L 388 138 Z" fill="none" stroke="#4F2790" stroke-width="3"/>

<circle cx="256" cy="182" r="102" fill="none" stroke="#D1ADFF" stroke-width="4" opacity="0.70"/>
<circle cx="256" cy="182" r="88" fill="url(#g_medal_phantom_1)" stroke="#8F50E8" stroke-width="6"/>
<circle cx="256" cy="182" r="72" fill="none" stroke="#CFAAFF" stroke-width="3.2" opacity="0.86"/>
<circle cx="256" cy="182" r="60" fill="none" stroke="#43217A" stroke-width="2.5" opacity="0.65"/>
<line x1="256.00" y1="128.00" x2="256.00" y2="100.00" stroke="#6833BD" stroke-width="5" stroke-linecap="round" opacity="0.16"/>
<line x1="276.66" y1="132.11" x2="287.38" y2="106.24" stroke="#6833BD" stroke-width="5" stroke-linecap="round" opacity="0.16"/>
<line x1="294.18" y1="143.82" x2="313.98" y2="124.02" stroke="#6833BD" stroke-width="5" stroke-linecap="round" opacity="0.16"/>
<line x1="305.89" y1="161.34" x2="331.76" y2="150.62" stroke="#6833BD" stroke-width="5" stroke-linecap="round" opacity="0.16"/>
<line x1="310.00" y1="182.00" x2="338.00" y2="182.00" stroke="#6833BD" stroke-width="5" stroke-linecap="round" opacity="0.16"/>
<line x1="305.89" y1="202.66" x2="331.76" y2="213.38" stroke="#6833BD" stroke-width="5" stroke-linecap="round" opacity="0.16"/>
<line x1="294.18" y1="220.18" x2="313.98" y2="239.98" stroke="#6833BD" stroke-width="5" stroke-linecap="round" opacity="0.16"/>
<line x1="276.66" y1="231.89" x2="287.38" y2="257.76" stroke="#6833BD" stroke-width="5" stroke-linecap="round" opacity="0.16"/>
<line x1="256.00" y1="236.00" x2="256.00" y2="264.00" stroke="#6833BD" stroke-width="5" stroke-linecap="round" opacity="0.16"/>
<line x1="235.34" y1="231.89" x2="224.62" y2="257.76" stroke="#6833BD" stroke-width="5" stroke-linecap="round" opacity="0.16"/>
<line x1="217.82" y1="220.18" x2="198.02" y2="239.98" stroke="#6833BD" stroke-width="5" stroke-linecap="round" opacity="0.16"/>
<line x1="206.11" y1="202.66" x2="180.24" y2="213.38" stroke="#6833BD" stroke-width="5" stroke-linecap="round" opacity="0.16"/>
<line x1="202.00" y1="182.00" x2="174.00" y2="182.00" stroke="#6833BD" stroke-width="5" stroke-linecap="round" opacity="0.16"/>
<line x1="206.11" y1="161.34" x2="180.24" y2="150.62" stroke="#6833BD" stroke-width="5" stroke-linecap="round" opacity="0.16"/>
<line x1="217.82" y1="143.82" x2="198.02" y2="124.02" stroke="#6833BD" stroke-width="5" stroke-linecap="round" opacity="0.16"/>
<line x1="235.34" y1="132.11" x2="224.62" y2="106.24" stroke="#6833BD" stroke-width="5" stroke-linecap="round" opacity="0.16"/>
<path d="M 174 154 Q 224 126 284 136 Q 318 142 346 164 Q 330 160 300 160 Q 238 160 194 176 Q 180 180 168 188 Z" fill="#D3B1FF" opacity="0.18"/>
<path d="M 256.00 88.00 L 258.53 94.52 L 265.51 94.91 L 260.09 99.33 L 261.88 106.09 L 256.00 102.30 L 250.12 106.09 L 251.91 99.33 L 246.49 94.91 L 253.47 94.52 Z" fill="#CFAAFF" stroke="#4F2790" stroke-width="2.2"/>

<g transform="translate(256,182)">
  <path d="M -44 52 Q -40 0 -32 -22 Q -18 -60 0 -60 Q 18 -60 32 -22 Q 40 0 44 52 Q 20 68 0 68 Q -20 68 -44 52 Z" fill="none" stroke="#CFAAFF" stroke-width="8.50" stroke-linejoin="round" stroke-linecap="round" transform="translate(-1.6,-1.6)" opacity="0.72"/>
<path d="M -44 52 Q -40 0 -32 -22 Q -18 -60 0 -60 Q 18 -60 32 -22 Q 40 0 44 52 Q 20 68 0 68 Q -20 68 -44 52 Z" fill="none" stroke="#150D23" stroke-width="8.50" stroke-linejoin="round" stroke-linecap="round" transform="translate(1.9,1.9)" opacity="0.55"/>
<path d="M -44 52 Q -40 0 -32 -22 Q -18 -60 0 -60 Q 18 -60 32 -22 Q 40 0 44 52 Q 20 68 0 68 Q -20 68 -44 52 Z" fill="none" stroke="#43217A" stroke-width="7" stroke-linejoin="round" stroke-linecap="round"/>
<path d="M -22 20 Q -10 8 0 8 Q 10 8 22 20 Q 14 42 0 42 Q -14 42 -22 20 Z" fill="none" stroke="#CFAAFF" stroke-width="8.50" stroke-linejoin="round" stroke-linecap="round" transform="translate(-1.6,-1.6)" opacity="0.72"/>
<path d="M -22 20 Q -10 8 0 8 Q 10 8 22 20 Q 14 42 0 42 Q -14 42 -22 20 Z" fill="none" stroke="#150D23" stroke-width="8.50" stroke-linejoin="round" stroke-linecap="round" transform="translate(1.9,1.9)" opacity="0.55"/>
<path d="M -22 20 Q -10 8 0 8 Q 10 8 22 20 Q 14 42 0 42 Q -14 42 -22 20 Z" fill="none" stroke="#43217A" stroke-width="7" stroke-linejoin="round" stroke-linecap="round"/>
<path d="M -14 24 Q -9 18 -3 24" fill="none" stroke="#CFAAFF" stroke-width="8.50" stroke-linejoin="round" stroke-linecap="round" transform="translate(-1.6,-1.6)" opacity="0.72"/>
<path d="M -14 24 Q -9 18 -3 24" fill="none" stroke="#150D23" stroke-width="8.50" stroke-linejoin="round" stroke-linecap="round" transform="translate(1.9,1.9)" opacity="0.55"/>
<path d="M -14 24 Q -9 18 -3 24" fill="none" stroke="#43217A" stroke-width="7" stroke-linejoin="round" stroke-linecap="round"/>
<path d="M 3 24 Q 9 18 14 24" fill="none" stroke="#CFAAFF" stroke-width="8.50" stroke-linejoin="round" stroke-linecap="round" transform="translate(-1.6,-1.6)" opacity="0.72"/>
<path d="M 3 24 Q 9 18 14 24" fill="none" stroke="#150D23" stroke-width="8.50" stroke-linejoin="round" stroke-linecap="round" transform="translate(1.9,1.9)" opacity="0.55"/>
<path d="M 3 24 Q 9 18 14 24" fill="none" stroke="#43217A" stroke-width="7" stroke-linejoin="round" stroke-linecap="round"/>
</g>

<rect x="92" y="308" width="328" height="78" rx="28" fill="url(#g_plaque_phantom_1)" stroke="#A56BF2" stroke-width="4"/>
<rect x="104" y="318" width="304" height="58" rx="22" fill="none" stroke="#D1ADFF" stroke-width="3" opacity="0.82"/>
<path d="M 116 320 Q 168 302 232 306 Q 288 310 332 330 Q 286 322 230 326 Q 170 330 116 352 Z" fill="#D1ADFF" opacity="0.14"/>

<path d="M 0.00 0.55 L 12.99 0.55 Q 18.78 0.55 21.88 3.12 Q 24.98 5.69 24.98 10.45 Q 24.98 15.23 21.88 17.80 Q 18.78 20.37 12.99 20.37 L 7.83 20.37 L 7.83 30.90 L 0.00 30.90 L 0.00 0.55 Z M 7.83 6.22 L 7.83 14.70 L 12.15 14.70 Q 14.43 14.70 15.67 13.59 Q 16.92 12.48 16.92 10.45 Q 16.92 8.42 15.67 7.32 Q 14.43 6.22 12.15 6.22 L 7.83 6.22 Z M 30.52 0.55 L 38.34 0.55 L 38.34 12.11 L 49.89 12.11 L 49.89 0.55 L 57.72 0.55 L 57.72 30.90 L 49.89 30.90 L 49.89 18.03 L 38.34 18.03 L 38.34 30.90 L 30.52 30.90 L 30.52 0.55 Z M 83.78 25.37 L 71.54 25.37 L 69.61 30.90 L 61.74 30.90 L 72.98 0.55 L 82.32 0.55 L 93.56 30.90 L 85.69 30.90 L 83.78 25.37 Z M 73.50 19.74 L 81.81 19.74 L 77.66 7.66 L 73.50 19.74 Z M 97.59 0.55 L 106.33 0.55 L 117.37 21.37 L 117.37 0.55 L 124.79 0.55 L 124.79 30.90 L 116.05 30.90 L 105.01 10.08 L 105.01 30.90 L 97.59 30.90 L 97.59 0.55 Z M 128.81 0.55 L 156.79 0.55 L 156.79 6.47 L 146.72 6.47 L 146.72 30.90 L 138.90 30.90 L 138.90 6.47 L 128.81 6.47 L 128.81 0.55 Z M 174.70 5.67 Q 171.12 5.67 169.15 8.31 Q 167.18 10.96 167.18 15.76 Q 167.18 20.53 169.15 23.18 Q 171.12 25.82 174.70 25.82 Q 178.30 25.82 180.27 23.18 Q 182.24 20.53 182.24 15.76 Q 182.24 10.96 180.27 8.31 Q 178.30 5.67 174.70 5.67 Z M 174.70 0.00 Q 182.02 0.00 186.17 4.19 Q 190.32 8.37 190.32 15.76 Q 190.32 23.12 186.17 27.31 Q 182.02 31.50 174.70 31.50 Q 167.40 31.50 163.25 27.31 Q 159.09 23.12 159.09 15.76 Q 159.09 8.37 163.25 4.19 Q 167.40 0.00 174.70 0.00 Z M 196.23 0.55 L 206.19 0.55 L 213.10 16.79 L 220.06 0.55 L 230.00 0.55 L 230.00 30.90 L 222.60 30.90 L 222.60 8.70 L 215.61 25.07 L 210.64 25.07 L 203.65 8.70 L 203.65 30.90 L 196.23 30.90 L 196.23 0.55 Z" fill="#CA9EFF" stroke="none" transform="translate(139.70,330.95)" opacity="0.78"/>
<path d="M 0.00 0.55 L 12.99 0.55 Q 18.78 0.55 21.88 3.12 Q 24.98 5.69 24.98 10.45 Q 24.98 15.23 21.88 17.80 Q 18.78 20.37 12.99 20.37 L 7.83 20.37 L 7.83 30.90 L 0.00 30.90 L 0.00 0.55 Z M 7.83 6.22 L 7.83 14.70 L 12.15 14.70 Q 14.43 14.70 15.67 13.59 Q 16.92 12.48 16.92 10.45 Q 16.92 8.42 15.67 7.32 Q 14.43 6.22 12.15 6.22 L 7.83 6.22 Z M 30.52 0.55 L 38.34 0.55 L 38.34 12.11 L 49.89 12.11 L 49.89 0.55 L 57.72 0.55 L 57.72 30.90 L 49.89 30.90 L 49.89 18.03 L 38.34 18.03 L 38.34 30.90 L 30.52 30.90 L 30.52 0.55 Z M 83.78 25.37 L 71.54 25.37 L 69.61 30.90 L 61.74 30.90 L 72.98 0.55 L 82.32 0.55 L 93.56 30.90 L 85.69 30.90 L 83.78 25.37 Z M 73.50 19.74 L 81.81 19.74 L 77.66 7.66 L 73.50 19.74 Z M 97.59 0.55 L 106.33 0.55 L 117.37 21.37 L 117.37 0.55 L 124.79 0.55 L 124.79 30.90 L 116.05 30.90 L 105.01 10.08 L 105.01 30.90 L 97.59 30.90 L 97.59 0.55 Z M 128.81 0.55 L 156.79 0.55 L 156.79 6.47 L 146.72 6.47 L 146.72 30.90 L 138.90 30.90 L 138.90 6.47 L 128.81 6.47 L 128.81 0.55 Z M 174.70 5.67 Q 171.12 5.67 169.15 8.31 Q 167.18 10.96 167.18 15.76 Q 167.18 20.53 169.15 23.18 Q 171.12 25.82 174.70 25.82 Q 178.30 25.82 180.27 23.18 Q 182.24 20.53 182.24 15.76 Q 182.24 10.96 180.27 8.31 Q 178.30 5.67 174.70 5.67 Z M 174.70 0.00 Q 182.02 0.00 186.17 4.19 Q 190.32 8.37 190.32 15.76 Q 190.32 23.12 186.17 27.31 Q 182.02 31.50 174.70 31.50 Q 167.40 31.50 163.25 27.31 Q 159.09 23.12 159.09 15.76 Q 159.09 8.37 163.25 4.19 Q 167.40 0.00 174.70 0.00 Z M 196.23 0.55 L 206.19 0.55 L 213.10 16.79 L 220.06 0.55 L 230.00 0.55 L 230.00 30.90 L 222.60 30.90 L 222.60 8.70 L 215.61 25.07 L 210.64 25.07 L 203.65 8.70 L 203.65 30.90 L 196.23 30.90 L 196.23 0.55 Z" fill="#43217B" stroke="none" transform="translate(142.50,333.75)" opacity="0.58"/>
<path d="M 0.00 0.55 L 12.99 0.55 Q 18.78 0.55 21.88 3.12 Q 24.98 5.69 24.98 10.45 Q 24.98 15.23 21.88 17.80 Q 18.78 20.37 12.99 20.37 L 7.83 20.37 L 7.83 30.90 L 0.00 30.90 L 0.00 0.55 Z M 7.83 6.22 L 7.83 14.70 L 12.15 14.70 Q 14.43 14.70 15.67 13.59 Q 16.92 12.48 16.92 10.45 Q 16.92 8.42 15.67 7.32 Q 14.43 6.22 12.15 6.22 L 7.83 6.22 Z M 30.52 0.55 L 38.34 0.55 L 38.34 12.11 L 49.89 12.11 L 49.89 0.55 L 57.72 0.55 L 57.72 30.90 L 49.89 30.90 L 49.89 18.03 L 38.34 18.03 L 38.34 30.90 L 30.52 30.90 L 30.52 0.55 Z M 83.78 25.37 L 71.54 25.37 L 69.61 30.90 L 61.74 30.90 L 72.98 0.55 L 82.32 0.55 L 93.56 30.90 L 85.69 30.90 L 83.78 25.37 Z M 73.50 19.74 L 81.81 19.74 L 77.66 7.66 L 73.50 19.74 Z M 97.59 0.55 L 106.33 0.55 L 117.37 21.37 L 117.37 0.55 L 124.79 0.55 L 124.79 30.90 L 116.05 30.90 L 105.01 10.08 L 105.01 30.90 L 97.59 30.90 L 97.59 0.55 Z M 128.81 0.55 L 156.79 0.55 L 156.79 6.47 L 146.72 6.47 L 146.72 30.90 L 138.90 30.90 L 138.90 6.47 L 128.81 6.47 L 128.81 0.55 Z M 174.70 5.67 Q 171.12 5.67 169.15 8.31 Q 167.18 10.96 167.18 15.76 Q 167.18 20.53 169.15 23.18 Q 171.12 25.82 174.70 25.82 Q 178.30 25.82 180.27 23.18 Q 182.24 20.53 182.24 15.76 Q 182.24 10.96 180.27 8.31 Q 178.30 5.67 174.70 5.67 Z M 174.70 0.00 Q 182.02 0.00 186.17 4.19 Q 190.32 8.37 190.32 15.76 Q 190.32 23.12 186.17 27.31 Q 182.02 31.50 174.70 31.50 Q 167.40 31.50 163.25 27.31 Q 159.09 23.12 159.09 15.76 Q 159.09 8.37 163.25 4.19 Q 167.40 0.00 174.70 0.00 Z M 196.23 0.55 L 206.19 0.55 L 213.10 16.79 L 220.06 0.55 L 230.00 0.55 L 230.00 30.90 L 222.60 30.90 L 222.60 8.70 L 215.61 25.07 L 210.64 25.07 L 203.65 8.70 L 203.65 30.90 L 196.23 30.90 L 196.23 0.55 Z" fill="#B87CFF" stroke="#472381" stroke-width="1.5" transform="translate(141.00,332.25)"/>

<g>
  <circle cx="256" cy="436" r="36" fill="#160E24" opacity="0.34"/>
  <circle cx="256" cy="426" r="34" fill="url(#g_coin_phantom_1)" stroke="#9455EB" stroke-width="4"/>
  <circle cx="256" cy="426" r="26" fill="none" stroke="#CFAAFF" stroke-width="3.2" opacity="0.84"/>
  <path d="M 232 422 Q 256 410 280 422" stroke="#D3B1FF" stroke-width="4" opacity="0.45" fill="none" stroke-linecap="round"/>
  
<path d="M 0.00 38.00 L 0.00 34.92 L 4.86 34.92 L 4.86 3.08 L 0.00 3.08 L 0.00 0.00 L 19.55 0.00 L 19.55 3.08 L 14.66 3.08 L 14.66 34.92 L 19.55 34.92 L 19.55 38.00 L 0.00 38.00 Z" fill="#CA9EFF" stroke="none" transform="translate(244.93,405.70)" opacity="0.78"/>
<path d="M 0.00 38.00 L 0.00 34.92 L 4.86 34.92 L 4.86 3.08 L 0.00 3.08 L 0.00 0.00 L 19.55 0.00 L 19.55 3.08 L 14.66 3.08 L 14.66 34.92 L 19.55 34.92 L 19.55 38.00 L 0.00 38.00 Z" fill="#43217B" stroke="none" transform="translate(247.73,408.50)" opacity="0.58"/>
<path d="M 0.00 38.00 L 0.00 34.92 L 4.86 34.92 L 4.86 3.08 L 0.00 3.08 L 0.00 0.00 L 19.55 0.00 L 19.55 3.08 L 14.66 3.08 L 14.66 34.92 L 19.55 34.92 L 19.55 38.00 L 0.00 38.00 Z" fill="#B87CFF" stroke="#472381" stroke-width="1.5" transform="translate(246.23,407.00)"/>
</g>
</svg>