<svg xmlns="http://www.w3.org/2000/svg" width="512" height="512" viewBox="0 0 512 512" role="img" aria-labelledby="title desc">
<title id="title">Rookie I</title>
<desc id="desc">Premium engraved plate style Swing rank badge for Rookie I.</desc>

<defs>
  <linearGradient id="g_plate_rookie_1" x1="0.05" y1="0.04" x2="0.92" y2="0.96">
    <stop offset="0%" stop-color="#F4F6F8"/>
    <stop offset="18%" stop-color="#E3E7EB"/>
    <stop offset="54%" stop-color="#C2C8CF"/>
    <stop offset="100%" stop-color="#747A82"/>
  </linearGradient>
  <linearGradient id="g_inner_rookie_1" x1="0.10" y1="0.08" x2="0.90" y2="0.92">
    <stop offset="0%" stop-color="#E2E6EA"/>
    <stop offset="100%" stop-color="#818991"/>
  </linearGradient>
  <linearGradient id="g_plaque_rookie_1" x1="0.10" y1="0.08" x2="0.92" y2="0.92">
    <stop offset="0%" stop-color="#E5E8EC"/>
    <stop offset="45%" stop-color="#D2D6DC"/>
    <stop offset="100%" stop-color="#AEB6BF"/>
  </linearGradient>
  <linearGradient id="g_coin_rookie_1" x1="0.14" y1="0.10" x2="0.88" y2="0.94">
    <stop offset="0%" stop-color="#E4E7EB"/>
    <stop offset="52%" stop-color="#D1D6DB"/>
    <stop offset="100%" stop-color="#B2B9C1"/>
  </linearGradient>
  <radialGradient id="g_medal_rookie_1" cx="38%" cy="28%" r="80%">
    <stop offset="0%" stop-color="#F3F5F7"/>
    <stop offset="58%" stop-color="#D5DADF"/>
    <stop offset="100%" stop-color="#B5BCC4"/>
  </radialGradient>
</defs>

<rect x="44" y="44" width="420" height="420" rx="94" fill="#050608" opacity="0.42"/>
<rect x="28" y="28" width="420" height="420" rx="94" fill="url(#g_plate_rookie_1)" stroke="#D4D9DF" stroke-width="9"/>
<rect x="42" y="42" width="392" height="392" rx="82" fill="none" stroke="#F5F6F9" stroke-width="6" opacity="0.88"/>
<rect x="58" y="58" width="360" height="360" rx="72" fill="url(#g_inner_rookie_1)" stroke="#B1B9C3" stroke-width="4"/>
<path d="M 100 88 Q 170 68 250 78 Q 330 88 396 146 Q 370 138 326 132 Q 250 120 178 124 Q 130 126 96 138 Z" fill="#F5F6F9" opacity="0.11"/>
<path d="M 88 390 Q 170 418 252 412 Q 330 406 398 374 Q 354 404 298 422 Q 210 450 110 432 Z" fill="#7A8189" opacity="0.12"/>


<path d="M 108 92 L 134 92 L 156 112 L 130 112 Z" fill="none" stroke="#F4F5F8" stroke-width="4"/>
<path d="M 108 126 L 124 126 L 140 138 L 124 138 Z" fill="none" stroke="#63696F" stroke-width="3"/>
<path d="M 404 92 L 378 92 L 356 112 L 382 112 Z" fill="none" stroke="#F4F5F8" stroke-width="4"/>
<path d="M 404 126 L 388 126 L 372 138 L 388 138 Z" fill="none" stroke="#63696F" stroke-width="3"/>

<circle cx="256" cy="182" r="102" fill="none" stroke="#F4F6F8" stroke-width="4" opacity="0.70"/>
<circle cx="256" cy="182" r="88" fill="url(#g_medal_rookie_1)" stroke="#AFB7C0" stroke-width="6"/>
<circle cx="256" cy="182" r="72" fill="none" stroke="#F4F6F8" stroke-width="3.2" opacity="0.86"/>
<circle cx="256" cy="182" r="60" fill="none" stroke="#54595E" stroke-width="2.5" opacity="0.65"/>
<line x1="256.00" y1="128.00" x2="256.00" y2="100.00" stroke="#818991" stroke-width="5" stroke-linecap="round" opacity="0.16"/>
<line x1="276.66" y1="132.11" x2="287.38" y2="106.24" stroke="#818991" stroke-width="5" stroke-linecap="round" opacity="0.16"/>
<line x1="294.18" y1="143.82" x2="313.98" y2="124.02" stroke="#818991" stroke-width="5" stroke-linecap="round" opacity="0.16"/>
<line x1="305.89" y1="161.34" x2="331.76" y2="150.62" stroke="#818991" stroke-width="5" stroke-linecap="round" opacity="0.16"/>
<line x1="310.00" y1="182.00" x2="338.00" y2="182.00" stroke="#818991" stroke-width="5" stroke-linecap="round" opacity="0.16"/>
<line x1="305.89" y1="202.66" x2="331.76" y2="213.38" stroke="#818991" stroke-width="5" stroke-linecap="round" opacity="0.16"/>
<line x1="294.18" y1="220.18" x2="313.98" y2="239.98" stroke="#818991" stroke-width="5" stroke-linecap="round" opacity="0.16"/>
<line x1="276.66" y1="231.89" x2="287.38" y2="257.76" stroke="#818991" stroke-width="5" stroke-linecap="round" opacity="0.16"/>
<line x1="256.00" y1="236.00" x2="256.00" y2="264.00" stroke="#818991" stroke-width="5" stroke-linecap="round" opacity="0.16"/>
<line x1="235.34" y1="231.89" x2="224.62" y2="257.76" stroke="#818991" stroke-width="5" stroke-linecap="round" opacity="0.16"/>
<line x1="217.82" y1="220.18" x2="198.02" y2="239.98" stroke="#818991" stroke-width="5" stroke-linecap="round" opacity="0.16"/>
<line x1="206.11" y1="202.66" x2="180.24" y2="213.38" stroke="#818991" stroke-width="5" stroke-linecap="round" opacity="0.16"/>
<line x1="202.00" y1="182.00" x2="174.00" y2="182.00" stroke="#818991" stroke-width="5" stroke-linecap="round" opacity="0.16"/>
<line x1="206.11" y1="161.34" x2="180.24" y2="150.62" stroke="#818991" stroke-width="5" stroke-linecap="round" opacity="0.16"/>
<line x1="217.82" y1="143.82" x2="198.02" y2="124.02" stroke="#818991" stroke-width="5" stroke-linecap="round" opacity="0.16"/>
<line x1="235.34" y1="132.11" x2="224.62" y2="106.24" stroke="#818991" stroke-width="5" stroke-linecap="round" opacity="0.16"/>
<path d="M 174 154 Q 224 126 284 136 Q 318 142 346 164 Q 330 160 300 160 Q 238 160 194 176 Q 180 180 168 188 Z" fill="#F5F6F9" opacity="0.18"/>
<path d="M 256.00 88.00 L 258.53 94.52 L 265.51 94.91 L 260.09 99.33 L 261.88 106.09 L 256.00 102.30 L 250.12 106.09 L 251.91 99.33 L 246.49 94.91 L 253.47 94.52 Z" fill="#F4F6F8" stroke="#63696F" stroke-width="2.2"/>

<g transform="translate(256,182)">
  <path d="M 0.00 -56.00 L 14.11 -19.42 L 53.26 -17.30 L 22.83 7.42 L 32.92 45.30 L 0.00 24.00 L -32.92 45.30 L -22.83 7.42 L -53.26 -17.30 L -14.11 -19.42 Z" fill="none" stroke="#F4F6F8" stroke-width="8.50" stroke-linejoin="round" stroke-linecap="round" transform="translate(-1.6,-1.6)" opacity="0.72"/>
<path d="M 0.00 -56.00 L 14.11 -19.42 L 53.26 -17.30 L 22.83 7.42 L 32.92 45.30 L 0.00 24.00 L -32.92 45.30 L -22.83 7.42 L -53.26 -17.30 L -14.11 -19.42 Z" fill="none" stroke="#050608" stroke-width="8.50" stroke-linejoin="round" stroke-linecap="round" transform="translate(1.9,1.9)" opacity="0.55"/>
<path d="M 0.00 -56.00 L 14.11 -19.42 L 53.26 -17.30 L 22.83 7.42 L 32.92 45.30 L 0.00 24.00 L -32.92 45.30 L -22.83 7.42 L -53.26 -17.30 L -14.11 -19.42 Z" fill="none" stroke="#54595E" stroke-width="7" stroke-linejoin="round" stroke-linecap="round"/>
<path d="M 0.00 -28.00 L 7.05 -9.71 L 26.63 -8.65 L 11.41 3.71 L 16.46 22.65 L 0.00 12.00 L -16.46 22.65 L -11.41 3.71 L -26.63 -8.65 L -7.05 -9.71 Z" fill="none" stroke="#F4F6F8" stroke-width="8.50" stroke-linejoin="round" stroke-linecap="round" transform="translate(-1.6,-1.6)" opacity="0.72"/>
<path d="M 0.00 -28.00 L 7.05 -9.71 L 26.63 -8.65 L 11.41 3.71 L 16.46 22.65 L 0.00 12.00 L -16.46 22.65 L -11.41 3.71 L -26.63 -8.65 L -7.05 -9.71 Z" fill="none" stroke="#050608" stroke-width="8.50" stroke-linejoin="round" stroke-linecap="round" transform="translate(1.9,1.9)" opacity="0.55"/>
<path d="M 0.00 -28.00 L 7.05 -9.71 L 26.63 -8.65 L 11.41 3.71 L 16.46 22.65 L 0.00 12.00 L -16.46 22.65 L -11.41 3.71 L -26.63 -8.65 L -7.05 -9.71 Z" fill="none" stroke="#54595E" stroke-width="7" stroke-linejoin="round" stroke-linecap="round"/>
</g>

<rect x="92" y="308" width="328" height="78" rx="28" fill="url(#g_plaque_rookie_1)" stroke="#C9CFD7" stroke-width="4"/>
<rect x="104" y="318" width="304" height="58" rx="22" fill="none" stroke="#F4F6F8" stroke-width="3" opacity="0.82"/>
<path d="M 116 320 Q 168 302 232 306 Q 288 310 332 330 Q 286 322 230 326 Q 170 330 116 352 Z" fill="#F4F6F8" opacity="0.14"/>

<path d="M 14.12 17.79 Q 17.24 17.79 18.60 16.63 Q 19.95 15.47 19.95 12.81 Q 19.95 10.17 18.60 9.04 Q 17.24 7.90 14.12 7.90 L 9.94 7.90 L 9.94 17.79 L 14.12 17.79 Z M 9.94 24.66 L 9.94 39.25 L 0.00 39.25 L 0.00 0.69 L 15.18 0.69 Q 22.80 0.69 26.34 3.26 Q 29.89 5.81 29.89 11.34 Q 29.89 15.15 28.04 17.61 Q 26.20 20.06 22.48 21.23 Q 24.52 21.69 26.14 23.33 Q 27.75 24.97 29.41 28.30 L 34.80 39.25 L 24.22 39.25 L 19.52 29.67 Q 18.10 26.78 16.63 25.72 Q 15.18 24.66 12.75 24.66 L 9.94 24.66 Z M 58.33 7.21 Q 53.78 7.21 51.28 10.56 Q 48.78 13.91 48.78 20.01 Q 48.78 26.08 51.28 29.44 Q 53.78 32.79 58.33 32.79 Q 62.90 32.79 65.40 29.44 Q 67.90 26.08 67.90 20.01 Q 67.90 13.91 65.40 10.56 Q 62.90 7.21 58.33 7.21 Z M 58.33 0.00 Q 67.62 0.00 72.89 5.32 Q 78.16 10.63 78.16 20.01 Q 78.16 29.36 72.89 34.68 Q 67.62 40.00 58.33 40.00 Q 49.06 40.00 43.78 34.68 Q 38.50 29.36 38.50 20.01 Q 38.50 10.63 43.78 5.32 Q 49.06 0.00 58.33 0.00 Z M 103.28 7.21 Q 98.74 7.21 96.23 10.56 Q 93.73 13.91 93.73 20.01 Q 93.73 26.08 96.23 29.44 Q 98.74 32.79 103.28 32.79 Q 107.85 32.79 110.36 29.44 Q 112.86 26.08 112.86 20.01 Q 112.86 13.91 110.36 10.56 Q 107.85 7.21 103.28 7.21 Z M 103.28 0.00 Q 112.58 0.00 117.84 5.32 Q 123.11 10.63 123.11 20.01 Q 123.11 29.36 117.84 34.68 Q 112.58 40.00 103.28 40.00 Q 94.01 40.00 88.73 34.68 Q 83.45 29.36 83.45 20.01 Q 83.45 10.63 88.73 5.32 Q 94.01 0.00 103.28 0.00 Z M 130.63 0.69 L 140.57 0.69 L 140.57 14.77 L 154.90 0.69 L 166.44 0.69 L 147.87 18.95 L 168.35 39.25 L 155.90 39.25 L 140.57 24.06 L 140.57 39.25 L 130.63 39.25 L 130.63 0.69 Z M 171.61 0.69 L 181.55 0.69 L 181.55 39.25 L 171.61 39.25 L 171.61 0.69 Z M 191.28 0.69 L 218.10 0.69 L 218.10 8.21 L 201.22 8.21 L 201.22 15.39 L 217.10 15.39 L 217.10 22.90 L 201.22 22.90 L 201.22 31.74 L 218.67 31.74 L 218.67 39.25 L 191.28 39.25 L 191.28 0.69 Z" fill="#E9ECEF" stroke="none" transform="translate(145.36,326.70)" opacity="0.78"/>
<path d="M 14.12 17.79 Q 17.24 17.79 18.60 16.63 Q 19.95 15.47 19.95 12.81 Q 19.95 10.17 18.60 9.04 Q 17.24 7.90 14.12 7.90 L 9.94 7.90 L 9.94 17.79 L 14.12 17.79 Z M 9.94 24.66 L 9.94 39.25 L 0.00 39.25 L 0.00 0.69 L 15.18 0.69 Q 22.80 0.69 26.34 3.26 Q 29.89 5.81 29.89 11.34 Q 29.89 15.15 28.04 17.61 Q 26.20 20.06 22.48 21.23 Q 24.52 21.69 26.14 23.33 Q 27.75 24.97 29.41 28.30 L 34.80 39.25 L 24.22 39.25 L 19.52 29.67 Q 18.10 26.78 16.63 25.72 Q 15.18 24.66 12.75 24.66 L 9.94 24.66 Z M 58.33 7.21 Q 53.78 7.21 51.28 10.56 Q 48.78 13.91 48.78 20.01 Q 48.78 26.08 51.28 29.44 Q 53.78 32.79 58.33 32.79 Q 62.90 32.79 65.40 29.44 Q 67.90 26.08 67.90 20.01 Q 67.90 13.91 65.40 10.56 Q 62.90 7.21 58.33 7.21 Z M 58.33 0.00 Q 67.62 0.00 72.89 5.32 Q 78.16 10.63 78.16 20.01 Q 78.16 29.36 72.89 34.68 Q 67.62 40.00 58.33 40.00 Q 49.06 40.00 43.78 34.68 Q 38.50 29.36 38.50 20.01 Q 38.50 10.63 43.78 5.32 Q 49.06 0.00 58.33 0.00 Z M 103.28 7.21 Q 98.74 7.21 96.23 10.56 Q 93.73 13.91 93.73 20.01 Q 93.73 26.08 96.23 29.44 Q 98.74 32.79 103.28 32.79 Q 107.85 32.79 110.36 29.44 Q 112.86 26.08 112.86 20.01 Q 112.86 13.91 110.36 10.56 Q 107.85 7.21 103.28 7.21 Z M 103.28 0.00 Q 112.58 0.00 117.84 5.32 Q 123.11 10.63 123.11 20.01 Q 123.11 29.36 117.84 34.68 Q 112.58 40.00 103.28 40.00 Q 94.01 40.00 88.73 34.68 Q 83.45 29.36 83.45 20.01 Q 83.45 10.63 88.73 5.32 Q 94.01 0.00 103.28 0.00 Z M 130.63 0.69 L 140.57 0.69 L 140.57 14.77 L 154.90 0.69 L 166.44 0.69 L 147.87 18.95 L 168.35 39.25 L 155.90 39.25 L 140.57 24.06 L 140.57 39.25 L 130.63 39.25 L 130.63 0.69 Z M 171.61 0.69 L 181.55 0.69 L 181.55 39.25 L 171.61 39.25 L 171.61 0.69 Z M 191.28 0.69 L 218.10 0.69 L 218.10 8.21 L 201.22 8.21 L 201.22 15.39 L 217.10 15.39 L 217.10 22.90 L 201.22 22.90 L 201.22 31.74 L 218.67 31.74 L 218.67 39.25 L 191.28 39.25 L 191.28 0.69 Z" fill="#54585E" stroke="none" transform="translate(148.16,329.50)" opacity="0.58"/>
<path d="M 14.12 17.79 Q 17.24 17.79 18.60 16.63 Q 19.95 15.47 19.95 12.81 Q 19.95 10.17 18.60 9.04 Q 17.24 7.90 14.12 7.90 L 9.94 7.90 L 9.94 17.79 L 14.12 17.79 Z M 9.94 24.66 L 9.94 39.25 L 0.00 39.25 L 0.00 0.69 L 15.18 0.69 Q 22.80 0.69 26.34 3.26 Q 29.89 5.81 29.89 11.34 Q 29.89 15.15 28.04 17.61 Q 26.20 20.06 22.48 21.23 Q 24.52 21.69 26.14 23.33 Q 27.75 24.97 29.41 28.30 L 34.80 39.25 L 24.22 39.25 L 19.52 29.67 Q 18.10 26.78 16.63 25.72 Q 15.18 24.66 12.75 24.66 L 9.94 24.66 Z M 58.33 7.21 Q 53.78 7.21 51.28 10.56 Q 48.78 13.91 48.78 20.01 Q 48.78 26.08 51.28 29.44 Q 53.78 32.79 58.33 32.79 Q 62.90 32.79 65.40 29.44 Q 67.90 26.08 67.90 20.01 Q 67.90 13.91 65.40 10.56 Q 62.90 7.21 58.33 7.21 Z M 58.33 0.00 Q 67.62 0.00 72.89 5.32 Q 78.16 10.63 78.16 20.01 Q 78.16 29.36 72.89 34.68 Q 67.62 40.00 58.33 40.00 Q 49.06 40.00 43.78 34.68 Q 38.50 29.36 38.50 20.01 Q 38.50 10.63 43.78 5.32 Q 49.06 0.00 58.33 0.00 Z M 103.28 7.21 Q 98.74 7.21 96.23 10.56 Q 93.73 13.91 93.73 20.01 Q 93.73 26.08 96.23 29.44 Q 98.74 32.79 103.28 32.79 Q 107.85 32.79 110.36 29.44 Q 112.86 26.08 112.86 20.01 Q 112.86 13.91 110.36 10.56 Q 107.85 7.21 103.28 7.21 Z M 103.28 0.00 Q 112.58 0.00 117.84 5.32 Q 123.11 10.63 123.11 20.01 Q 123.11 29.36 117.84 34.68 Q 112.58 40.00 103.28 40.00 Q 94.01 40.00 88.73 34.68 Q 83.45 29.36 83.45 20.01 Q 83.45 10.63 88.73 5.32 Q 94.01 0.00 103.28 0.00 Z M 130.63 0.69 L 140.57 0.69 L 140.57 14.77 L 154.90 0.69 L 166.44 0.69 L 147.87 18.95 L 168.35 39.25 L 155.90 39.25 L 140.57 24.06 L 140.57 39.25 L 130.63 39.25 L 130.63 0.69 Z M 171.61 0.69 L 181.55 0.69 L 181.55 39.25 L 171.61 39.25 L 171.61 0.69 Z M 191.28 0.69 L 218.10 0.69 L 218.10 8.21 L 201.22 8.21 L 201.22 15.39 L 217.10 15.39 L 217.10 22.90 L 201.22 22.90 L 201.22 31.74 L 218.67 31.74 L 218.67 39.25 L 191.28 39.25 L 191.28 0.69 Z" fill="#E1E5EA" stroke="#585D63" stroke-width="1.5" transform="translate(146.66,328.00)"/>

<g>
  <circle cx="256" cy="436" r="36" fill="#050608" opacity="0.34"/>
  <circle cx="256" cy="426" r="34" fill="url(#g_coin_rookie_1)" stroke="#B4BCC5" stroke-width="4"/>
  <circle cx="256" cy="426" r="26" fill="none" stroke="#F4F6F8" stroke-width="3.2" opacity="0.84"/>
  <path d="M 232 422 Q 256 410 280 422" stroke="#F5F6F9" stroke-width="4" opacity="0.45" fill="none" stroke-linecap="round"/>
  
<path d="M 0.00 38.00 L 0.00 34.92 L 4.86 34.92 L 4.86 3.08 L 0.00 3.08 L 0.00 0.00 L 19.55 0.00 L 19.55 3.08 L 14.66 3.08 L 14.66 34.92 L 19.55 34.92 L 19.55 38.00 L 0.00 38.00 Z" fill="#E9ECEF" stroke="none" transform="translate(244.93,405.70)" opacity="0.78"/>
<path d="M 0.00 38.00 L 0.00 34.92 L 4.86 34.92 L 4.86 3.08 L 0.00 3.08 L 0.00 0.00 L 19.55 0.00 L 19.55 3.08 L 14.66 3.08 L 14.66 34.92 L 19.55 34.92 L 19.55 38.00 L 0.00 38.00 Z" fill="#54585E" stroke="none" transform="translate(247.73,408.50)" opacity="0.58"/>
<path d="M 0.00 38.00 L 0.00 34.92 L 4.86 34.92 L 4.86 3.08 L 0.00 3.08 L 0.00 0.00 L 19.55 0.00 L 19.55 3.08 L 14.66 3.08 L 14.66 34.92 L 19.55 34.92 L 19.55 38.00 L 0.00 38.00 Z" fill="#E1E5EA" stroke="#585D63" stroke-width="1.5" transform="translate(246.23,407.00)"/>
</g>
</svg>