<svg xmlns="http://www.w3.org/2000/svg" width="512" height="512" viewBox="0 0 512 512" role="img" aria-labelledby="title desc">
<title id="title">Vanguard I</title>
<desc id="desc">Premium engraved plate style Swing rank badge for Vanguard I.</desc>

<defs>
  <linearGradient id="g_plate_vanguard_1" x1="0.05" y1="0.04" x2="0.92" y2="0.96">
    <stop offset="0%" stop-color="#ABCAFF"/>
    <stop offset="18%" stop-color="#97BFFF"/>
    <stop offset="54%" stop-color="#588FF0"/>
    <stop offset="100%" stop-color="#244BA1"/>
  </linearGradient>
  <linearGradient id="g_inner_vanguard_1" x1="0.10" y1="0.08" x2="0.90" y2="0.92">
    <stop offset="0%" stop-color="#92BCFF"/>
    <stop offset="100%" stop-color="#2854B4"/>
  </linearGradient>
  <linearGradient id="g_plaque_vanguard_1" x1="0.10" y1="0.08" x2="0.92" y2="0.92">
    <stop offset="0%" stop-color="#9EC3FF"/>
    <stop offset="45%" stop-color="#7FA9F5"/>
    <stop offset="100%" stop-color="#457AE3"/>
  </linearGradient>
  <linearGradient id="g_coin_vanguard_1" x1="0.14" y1="0.10" x2="0.88" y2="0.94">
    <stop offset="0%" stop-color="#9AC1FF"/>
    <stop offset="52%" stop-color="#7BA8F5"/>
    <stop offset="100%" stop-color="#487EE5"/>
  </linearGradient>
  <radialGradient id="g_medal_vanguard_1" cx="38%" cy="28%" r="80%">
    <stop offset="0%" stop-color="#9EC1FF"/>
    <stop offset="58%" stop-color="#76A2F3"/>
    <stop offset="100%" stop-color="#4B81E7"/>
  </radialGradient>
</defs>

<rect x="44" y="44" width="420" height="420" rx="94" fill="#0C1422" opacity="0.42"/>
<rect x="28" y="28" width="420" height="420" rx="94" fill="url(#g_plate_vanguard_1)" stroke="#76A4F8" stroke-width="9"/>
<rect x="42" y="42" width="392" height="392" rx="82" fill="none" stroke="#ADCBFF" stroke-width="6" opacity="0.88"/>
<rect x="58" y="58" width="360" height="360" rx="72" fill="url(#g_inner_vanguard_1)" stroke="#4E83EA" stroke-width="4"/>
<path d="M 100 88 Q 170 68 250 78 Q 330 88 396 146 Q 370 138 326 132 Q 250 120 178 124 Q 130 126 96 138 Z" fill="#ADCBFF" opacity="0.11"/>
<path d="M 88 390 Q 170 418 252 412 Q 330 406 398 374 Q 354 404 298 422 Q 210 450 110 432 Z" fill="#264FAA" opacity="0.12"/>


<path d="M 108 92 L 134 92 L 156 112 L 130 112 Z" fill="none" stroke="#A5C6FF" stroke-width="4"/>
<path d="M 108 126 L 124 126 L 140 138 L 124 138 Z" fill="none" stroke="#1F408A" stroke-width="3"/>
<path d="M 404 92 L 378 92 L 356 112 L 382 112 Z" fill="none" stroke="#A5C6FF" stroke-width="4"/>
<path d="M 404 126 L 388 126 L 372 138 L 388 138 Z" fill="none" stroke="#1F408A" stroke-width="3"/>

<circle cx="256" cy="182" r="102" fill="none" stroke="#ABCAFF" stroke-width="4" opacity="0.70"/>
<circle cx="256" cy="182" r="88" fill="url(#g_medal_vanguard_1)" stroke="#4B80E8" stroke-width="6"/>
<circle cx="256" cy="182" r="72" fill="none" stroke="#A8C8FF" stroke-width="3.2" opacity="0.86"/>
<circle cx="256" cy="182" r="60" fill="none" stroke="#1A3675" stroke-width="2.5" opacity="0.65"/>
<line x1="256.00" y1="128.00" x2="256.00" y2="100.00" stroke="#2854B4" stroke-width="5" stroke-linecap="round" opacity="0.16"/>
<line x1="276.66" y1="132.11" x2="287.38" y2="106.24" stroke="#2854B4" stroke-width="5" stroke-linecap="round" opacity="0.16"/>
<line x1="294.18" y1="143.82" x2="313.98" y2="124.02" stroke="#2854B4" stroke-width="5" stroke-linecap="round" opacity="0.16"/>
<line x1="305.89" y1="161.34" x2="331.76" y2="150.62" stroke="#2854B4" stroke-width="5" stroke-linecap="round" opacity="0.16"/>
<line x1="310.00" y1="182.00" x2="338.00" y2="182.00" stroke="#2854B4" stroke-width="5" stroke-linecap="round" opacity="0.16"/>
<line x1="305.89" y1="202.66" x2="331.76" y2="213.38" stroke="#2854B4" stroke-width="5" stroke-linecap="round" opacity="0.16"/>
<line x1="294.18" y1="220.18" x2="313.98" y2="239.98" stroke="#2854B4" stroke-width="5" stroke-linecap="round" opacity="0.16"/>
<line x1="276.66" y1="231.89" x2="287.38" y2="257.76" stroke="#2854B4" stroke-width="5" stroke-linecap="round" opacity="0.16"/>
<line x1="256.00" y1="236.00" x2="256.00" y2="264.00" stroke="#2854B4" stroke-width="5" stroke-linecap="round" opacity="0.16"/>
<line x1="235.34" y1="231.89" x2="224.62" y2="257.76" stroke="#2854B4" stroke-width="5" stroke-linecap="round" opacity="0.16"/>
<line x1="217.82" y1="220.18" x2="198.02" y2="239.98" stroke="#2854B4" stroke-width="5" stroke-linecap="round" opacity="0.16"/>
<line x1="206.11" y1="202.66" x2="180.24" y2="213.38" stroke="#2854B4" stroke-width="5" stroke-linecap="round" opacity="0.16"/>
<line x1="202.00" y1="182.00" x2="174.00" y2="182.00" stroke="#2854B4" stroke-width="5" stroke-linecap="round" opacity="0.16"/>
<line x1="206.11" y1="161.34" x2="180.24" y2="150.62" stroke="#2854B4" stroke-width="5" stroke-linecap="round" opacity="0.16"/>
<line x1="217.82" y1="143.82" x2="198.02" y2="124.02" stroke="#2854B4" stroke-width="5" stroke-linecap="round" opacity="0.16"/>
<line x1="235.34" y1="132.11" x2="224.62" y2="106.24" stroke="#2854B4" stroke-width="5" stroke-linecap="round" opacity="0.16"/>
<path d="M 174 154 Q 224 126 284 136 Q 318 142 346 164 Q 330 160 300 160 Q 238 160 194 176 Q 180 180 168 188 Z" fill="#AFCCFF" opacity="0.18"/>
<path d="M 256.00 88.00 L 258.53 94.52 L 265.51 94.91 L 260.09 99.33 L 261.88 106.09 L 256.00 102.30 L 250.12 106.09 L 251.91 99.33 L 246.49 94.91 L 253.47 94.52 Z" fill="#A8C8FF" stroke="#1F408A" stroke-width="2.2"/>

<g transform="translate(256,182)">
  <path d="M 0 -68 L 56 -42 L 44 18 Q 20 54 0 66 Q -20 54 -44 18 L -56 -42 Z" fill="none" stroke="#A8C8FF" stroke-width="8.50" stroke-linejoin="round" stroke-linecap="round" transform="translate(-1.6,-1.6)" opacity="0.72"/>
<path d="M 0 -68 L 56 -42 L 44 18 Q 20 54 0 66 Q -20 54 -44 18 L -56 -42 Z" fill="none" stroke="#0B1320" stroke-width="8.50" stroke-linejoin="round" stroke-linecap="round" transform="translate(1.9,1.9)" opacity="0.55"/>
<path d="M 0 -68 L 56 -42 L 44 18 Q 20 54 0 66 Q -20 54 -44 18 L -56 -42 Z" fill="none" stroke="#1A3675" stroke-width="7" stroke-linejoin="round" stroke-linecap="round"/>
<path d="M 0 -34 L 26 -2 L 11 -2 L 11 34 L -11 34 L -11 -2 L -26 -2 Z" fill="none" stroke="#A8C8FF" stroke-width="8.50" stroke-linejoin="round" stroke-linecap="round" transform="translate(-1.6,-1.6)" opacity="0.72"/>
<path d="M 0 -34 L 26 -2 L 11 -2 L 11 34 L -11 34 L -11 -2 L -26 -2 Z" fill="none" stroke="#0B1320" stroke-width="8.50" stroke-linejoin="round" stroke-linecap="round" transform="translate(1.9,1.9)" opacity="0.55"/>
<path d="M 0 -34 L 26 -2 L 11 -2 L 11 34 L -11 34 L -11 -2 L -26 -2 Z" fill="none" stroke="#1A3675" stroke-width="7" stroke-linejoin="round" stroke-linecap="round"/>
</g>

<rect x="92" y="308" width="328" height="78" rx="28" fill="url(#g_plaque_vanguard_1)" stroke="#6A9BF5" stroke-width="4"/>
<rect x="104" y="318" width="304" height="58" rx="22" fill="none" stroke="#ABCAFF" stroke-width="3" opacity="0.82"/>
<path d="M 116 320 Q 168 302 232 306 Q 288 310 332 330 Q 286 322 230 326 Q 170 330 116 352 Z" fill="#ABCAFF" opacity="0.14"/>

<path d="M 0.00 0.48 L 6.97 0.48 L 14.10 20.33 L 21.22 0.48 L 28.19 0.48 L 18.23 27.37 L 9.96 27.37 L 0.00 0.48 Z M 45.58 22.48 L 34.74 22.48 L 33.03 27.37 L 26.06 27.37 L 36.01 0.48 L 44.28 0.48 L 54.24 27.37 L 47.28 27.37 L 45.58 22.48 Z M 36.47 17.49 L 43.84 17.49 L 40.16 6.79 L 36.47 17.49 Z M 57.81 0.48 L 65.55 0.48 L 75.33 18.93 L 75.33 0.48 L 81.91 0.48 L 81.91 27.37 L 74.16 27.37 L 64.38 8.93 L 64.38 27.37 L 57.81 27.37 L 57.81 0.48 Z M 112.85 25.38 Q 110.25 26.64 107.46 27.27 Q 104.67 27.90 101.70 27.90 Q 94.98 27.90 91.05 24.14 Q 87.13 20.38 87.13 13.96 Q 87.13 7.46 91.12 3.73 Q 95.12 0.00 102.08 0.00 Q 104.76 0.00 107.21 0.51 Q 109.68 1.01 111.85 2.00 L 111.85 7.56 Q 109.61 6.29 107.38 5.66 Q 105.16 5.03 102.92 5.03 Q 98.78 5.03 96.54 7.34 Q 94.30 9.65 94.30 13.96 Q 94.30 18.22 96.46 20.55 Q 98.62 22.87 102.60 22.87 Q 103.68 22.87 104.61 22.74 Q 105.54 22.60 106.28 22.31 L 106.28 17.09 L 102.04 17.09 L 102.04 12.44 L 112.85 12.44 L 112.85 25.38 Z M 118.95 0.48 L 125.89 0.48 L 125.89 16.60 Q 125.89 19.93 126.98 21.37 Q 128.07 22.80 130.53 22.80 Q 133.02 22.80 134.11 21.37 Q 135.20 19.93 135.20 16.60 L 135.20 0.48 L 142.13 0.48 L 142.13 16.60 Q 142.13 22.31 139.26 25.11 Q 136.41 27.90 130.53 27.90 Q 124.68 27.90 121.81 25.11 Q 118.95 22.31 118.95 16.60 L 118.95 0.48 Z M 164.07 22.48 L 153.23 22.48 L 151.52 27.37 L 144.54 27.37 L 154.50 0.48 L 162.77 0.48 L 172.73 27.37 L 165.76 27.37 L 164.07 22.48 Z M 154.96 17.49 L 162.32 17.49 L 158.65 6.79 L 154.96 17.49 Z M 186.15 12.41 Q 188.33 12.41 189.27 11.60 Q 190.22 10.79 190.22 8.93 Q 190.22 7.09 189.27 6.30 Q 188.33 5.51 186.15 5.51 L 183.23 5.51 L 183.23 12.41 L 186.15 12.41 Z M 183.23 17.20 L 183.23 27.37 L 176.30 27.37 L 176.30 0.48 L 186.89 0.48 Q 192.20 0.48 194.67 2.27 Q 197.15 4.05 197.15 7.91 Q 197.15 10.57 195.86 12.28 Q 194.57 13.99 191.98 14.81 Q 193.40 15.13 194.53 16.28 Q 195.66 17.42 196.81 19.74 L 200.57 27.37 L 193.19 27.37 L 189.91 20.70 Q 188.92 18.68 187.90 17.94 Q 186.89 17.20 185.19 17.20 L 183.23 17.20 Z M 211.63 5.73 L 211.63 22.14 L 214.12 22.14 Q 218.36 22.14 220.61 20.03 Q 222.85 17.92 222.85 13.90 Q 222.85 9.91 220.62 7.82 Q 218.39 5.73 214.12 5.73 L 211.63 5.73 Z M 204.70 0.48 L 212.01 0.48 Q 218.13 0.48 221.13 1.36 Q 224.13 2.23 226.27 4.32 Q 228.16 6.14 229.08 8.52 Q 230.00 10.90 230.00 13.90 Q 230.00 16.95 229.08 19.34 Q 228.16 21.72 226.27 23.54 Q 224.11 25.63 221.08 26.50 Q 218.06 27.37 212.01 27.37 L 204.70 27.37 L 204.70 0.48 Z" fill="#9FC3FF" stroke="none" transform="translate(139.70,332.75)" opacity="0.78"/>
<path d="M 0.00 0.48 L 6.97 0.48 L 14.10 20.33 L 21.22 0.48 L 28.19 0.48 L 18.23 27.37 L 9.96 27.37 L 0.00 0.48 Z M 45.58 22.48 L 34.74 22.48 L 33.03 27.37 L 26.06 27.37 L 36.01 0.48 L 44.28 0.48 L 54.24 27.37 L 47.28 27.37 L 45.58 22.48 Z M 36.47 17.49 L 43.84 17.49 L 40.16 6.79 L 36.47 17.49 Z M 57.81 0.48 L 65.55 0.48 L 75.33 18.93 L 75.33 0.48 L 81.91 0.48 L 81.91 27.37 L 74.16 27.37 L 64.38 8.93 L 64.38 27.37 L 57.81 27.37 L 57.81 0.48 Z M 112.85 25.38 Q 110.25 26.64 107.46 27.27 Q 104.67 27.90 101.70 27.90 Q 94.98 27.90 91.05 24.14 Q 87.13 20.38 87.13 13.96 Q 87.13 7.46 91.12 3.73 Q 95.12 0.00 102.08 0.00 Q 104.76 0.00 107.21 0.51 Q 109.68 1.01 111.85 2.00 L 111.85 7.56 Q 109.61 6.29 107.38 5.66 Q 105.16 5.03 102.92 5.03 Q 98.78 5.03 96.54 7.34 Q 94.30 9.65 94.30 13.96 Q 94.30 18.22 96.46 20.55 Q 98.62 22.87 102.60 22.87 Q 103.68 22.87 104.61 22.74 Q 105.54 22.60 106.28 22.31 L 106.28 17.09 L 102.04 17.09 L 102.04 12.44 L 112.85 12.44 L 112.85 25.38 Z M 118.95 0.48 L 125.89 0.48 L 125.89 16.60 Q 125.89 19.93 126.98 21.37 Q 128.07 22.80 130.53 22.80 Q 133.02 22.80 134.11 21.37 Q 135.20 19.93 135.20 16.60 L 135.20 0.48 L 142.13 0.48 L 142.13 16.60 Q 142.13 22.31 139.26 25.11 Q 136.41 27.90 130.53 27.90 Q 124.68 27.90 121.81 25.11 Q 118.95 22.31 118.95 16.60 L 118.95 0.48 Z M 164.07 22.48 L 153.23 22.48 L 151.52 27.37 L 144.54 27.37 L 154.50 0.48 L 162.77 0.48 L 172.73 27.37 L 165.76 27.37 L 164.07 22.48 Z M 154.96 17.49 L 162.32 17.49 L 158.65 6.79 L 154.96 17.49 Z M 186.15 12.41 Q 188.33 12.41 189.27 11.60 Q 190.22 10.79 190.22 8.93 Q 190.22 7.09 189.27 6.30 Q 188.33 5.51 186.15 5.51 L 183.23 5.51 L 183.23 12.41 L 186.15 12.41 Z M 183.23 17.20 L 183.23 27.37 L 176.30 27.37 L 176.30 0.48 L 186.89 0.48 Q 192.20 0.48 194.67 2.27 Q 197.15 4.05 197.15 7.91 Q 197.15 10.57 195.86 12.28 Q 194.57 13.99 191.98 14.81 Q 193.40 15.13 194.53 16.28 Q 195.66 17.42 196.81 19.74 L 200.57 27.37 L 193.19 27.37 L 189.91 20.70 Q 188.92 18.68 187.90 17.94 Q 186.89 17.20 185.19 17.20 L 183.23 17.20 Z M 211.63 5.73 L 211.63 22.14 L 214.12 22.14 Q 218.36 22.14 220.61 20.03 Q 222.85 17.92 222.85 13.90 Q 222.85 9.91 220.62 7.82 Q 218.39 5.73 214.12 5.73 L 211.63 5.73 Z M 204.70 0.48 L 212.01 0.48 Q 218.13 0.48 221.13 1.36 Q 224.13 2.23 226.27 4.32 Q 228.16 6.14 229.08 8.52 Q 230.00 10.90 230.00 13.90 Q 230.00 16.95 229.08 19.34 Q 228.16 21.72 226.27 23.54 Q 224.11 25.63 221.08 26.50 Q 218.06 27.37 212.01 27.37 L 204.70 27.37 L 204.70 0.48 Z" fill="#1A3675" stroke="none" transform="translate(142.50,335.55)" opacity="0.58"/>
<path d="M 0.00 0.48 L 6.97 0.48 L 14.10 20.33 L 21.22 0.48 L 28.19 0.48 L 18.23 27.37 L 9.96 27.37 L 0.00 0.48 Z M 45.58 22.48 L 34.74 22.48 L 33.03 27.37 L 26.06 27.37 L 36.01 0.48 L 44.28 0.48 L 54.24 27.37 L 47.28 27.37 L 45.58 22.48 Z M 36.47 17.49 L 43.84 17.49 L 40.16 6.79 L 36.47 17.49 Z M 57.81 0.48 L 65.55 0.48 L 75.33 18.93 L 75.33 0.48 L 81.91 0.48 L 81.91 27.37 L 74.16 27.37 L 64.38 8.93 L 64.38 27.37 L 57.81 27.37 L 57.81 0.48 Z M 112.85 25.38 Q 110.25 26.64 107.46 27.27 Q 104.67 27.90 101.70 27.90 Q 94.98 27.90 91.05 24.14 Q 87.13 20.38 87.13 13.96 Q 87.13 7.46 91.12 3.73 Q 95.12 0.00 102.08 0.00 Q 104.76 0.00 107.21 0.51 Q 109.68 1.01 111.85 2.00 L 111.85 7.56 Q 109.61 6.29 107.38 5.66 Q 105.16 5.03 102.92 5.03 Q 98.78 5.03 96.54 7.34 Q 94.30 9.65 94.30 13.96 Q 94.30 18.22 96.46 20.55 Q 98.62 22.87 102.60 22.87 Q 103.68 22.87 104.61 22.74 Q 105.54 22.60 106.28 22.31 L 106.28 17.09 L 102.04 17.09 L 102.04 12.44 L 112.85 12.44 L 112.85 25.38 Z M 118.95 0.48 L 125.89 0.48 L 125.89 16.60 Q 125.89 19.93 126.98 21.37 Q 128.07 22.80 130.53 22.80 Q 133.02 22.80 134.11 21.37 Q 135.20 19.93 135.20 16.60 L 135.20 0.48 L 142.13 0.48 L 142.13 16.60 Q 142.13 22.31 139.26 25.11 Q 136.41 27.90 130.53 27.90 Q 124.68 27.90 121.81 25.11 Q 118.95 22.31 118.95 16.60 L 118.95 0.48 Z M 164.07 22.48 L 153.23 22.48 L 151.52 27.37 L 144.54 27.37 L 154.50 0.48 L 162.77 0.48 L 172.73 27.37 L 165.76 27.37 L 164.07 22.48 Z M 154.96 17.49 L 162.32 17.49 L 158.65 6.79 L 154.96 17.49 Z M 186.15 12.41 Q 188.33 12.41 189.27 11.60 Q 190.22 10.79 190.22 8.93 Q 190.22 7.09 189.27 6.30 Q 188.33 5.51 186.15 5.51 L 183.23 5.51 L 183.23 12.41 L 186.15 12.41 Z M 183.23 17.20 L 183.23 27.37 L 176.30 27.37 L 176.30 0.48 L 186.89 0.48 Q 192.20 0.48 194.67 2.27 Q 197.15 4.05 197.15 7.91 Q 197.15 10.57 195.86 12.28 Q 194.57 13.99 191.98 14.81 Q 193.40 15.13 194.53 16.28 Q 195.66 17.42 196.81 19.74 L 200.57 27.37 L 193.19 27.37 L 189.91 20.70 Q 188.92 18.68 187.90 17.94 Q 186.89 17.20 185.19 17.20 L 183.23 17.20 Z M 211.63 5.73 L 211.63 22.14 L 214.12 22.14 Q 218.36 22.14 220.61 20.03 Q 222.85 17.92 222.85 13.90 Q 222.85 9.91 220.62 7.82 Q 218.39 5.73 214.12 5.73 L 211.63 5.73 Z M 204.70 0.48 L 212.01 0.48 Q 218.13 0.48 221.13 1.36 Q 224.13 2.23 226.27 4.32 Q 228.16 6.14 229.08 8.52 Q 230.00 10.90 230.00 13.90 Q 230.00 16.95 229.08 19.34 Q 228.16 21.72 226.27 23.54 Q 224.11 25.63 221.08 26.50 Q 218.06 27.37 212.01 27.37 L 204.70 27.37 L 204.70 0.48 Z" fill="#7DAEFF" stroke="#1B397B" stroke-width="1.5" transform="translate(141.00,334.05)"/>

<g>
  <circle cx="256" cy="436" r="36" fill="#0C1421" opacity="0.34"/>
  <circle cx="256" cy="426" r="34" fill="url(#g_coin_vanguard_1)" stroke="#5186EC" stroke-width="4"/>
  <circle cx="256" cy="426" r="26" fill="none" stroke="#A8C8FF" stroke-width="3.2" opacity="0.84"/>
  <path d="M 232 422 Q 256 410 280 422" stroke="#AFCCFF" stroke-width="4" opacity="0.45" fill="none" stroke-linecap="round"/>
  
<path d="M 0.00 38.00 L 0.00 34.92 L 4.86 34.92 L 4.86 3.08 L 0.00 3.08 L 0.00 0.00 L 19.55 0.00 L 19.55 3.08 L 14.66 3.08 L 14.66 34.92 L 19.55 34.92 L 19.55 38.00 L 0.00 38.00 Z" fill="#9FC3FF" stroke="none" transform="translate(244.93,405.70)" opacity="0.78"/>
<path d="M 0.00 38.00 L 0.00 34.92 L 4.86 34.92 L 4.86 3.08 L 0.00 3.08 L 0.00 0.00 L 19.55 0.00 L 19.55 3.08 L 14.66 3.08 L 14.66 34.92 L 19.55 34.92 L 19.55 38.00 L 0.00 38.00 Z" fill="#1A3675" stroke="none" transform="translate(247.73,408.50)" opacity="0.58"/>
<path d="M 0.00 38.00 L 0.00 34.92 L 4.86 34.92 L 4.86 3.08 L 0.00 3.08 L 0.00 0.00 L 19.55 0.00 L 19.55 3.08 L 14.66 3.08 L 14.66 34.92 L 19.55 34.92 L 19.55 38.00 L 0.00 38.00 Z" fill="#7DAEFF" stroke="#1B397B" stroke-width="1.5" transform="translate(246.23,407.00)"/>
</g>
</svg>