<svg xmlns="http://www.w3.org/2000/svg" viewBox="0 0 1100 400" width="1100" height="400">
  
  <g fill="#0E0F0C">
    
    <g>
      <path d="M 198 92 C 198 78, 214 70, 228 72 C 244 74, 254 86, 254 102 C 254 118, 246 128, 232 132 C 216 134, 202 126, 198 112 Z"></path>
      <path d="M 246 100 L 268 96 C 272 96, 272 102, 268 104 L 250 110 Z"></path>
      <path d="M 218 132 C 216 140, 214 146, 212 150 L 188 158 C 180 170, 176 190, 178 218 L 186 232 C 200 242, 218 244, 236 238 L 252 226 C 258 210, 260 190, 256 172 L 248 158 C 242 148, 232 140, 226 134 Z"></path>
      <path d="M 250 156 C 262 150, 278 140, 292 130 L 306 120 C 316 114, 324 110, 332 106 L 328 94 C 322 96, 314 100, 306 106 C 292 116, 276 128, 260 140 C 252 146, 246 152, 244 156 Z"></path>
      <path d="M 200 160 C 204 170, 210 180, 222 186 L 258 176 C 268 172, 274 166, 276 158 L 268 154 C 262 160, 254 164, 244 168 L 220 174 C 212 170, 208 164, 204 156 Z"></path>
      <g transform="rotate(-62 318 100)">
        <path d="M 318 10 L 352 10 L 352 96 L 318 96 Z"></path>
        <rect x="329" y="104" width="12" height="28"></rect>
      </g>
      <path d="M 236 238 C 244 246, 252 256, 258 266 L 268 278 C 270 284, 266 292, 258 298 L 240 316 C 228 320, 218 320, 214 314 L 218 308 C 226 308, 236 304, 244 298 C 250 292, 252 284, 248 276 L 238 262 C 232 252, 228 244, 228 238 Z"></path>
      <path d="M 198 230 L 188 240 C 182 260, 180 282, 184 310 L 186 332 C 186 340, 192 344, 202 344 C 214 344, 220 340, 220 332 L 218 322 C 218 312, 214 296, 210 280 L 208 260 C 206 246, 204 236, 202 230 Z"></path>
    </g>
    
    <text x="430" y="290" font-family="&#39;Bricolage Grotesque&#39;, &#39;Inter Tight&#39;, system-ui, sans-serif" font-weight="800" font-style="italic" font-size="280" letter-spacing="-12">Swing<tspan fill="#C8FF3E">.</tspan></text>
  </g>
</svg>